<?xml version="1.0" encoding="UTF-8"?>
<svg version="1.1" xmlns="http://www.w3.org/2000/svg" width="393" height="148">
<path d="M0 0 C2.60589706 1.3464045 5.07988996 2.87762998 7.5625 4.4375 C8.87552358 5.24995741 10.18930406 6.0611931 11.50390625 6.87109375 C12.11121582 7.2460498 12.71852539 7.62100586 13.34423828 8.00732422 C15.18322511 9.10984862 17.05620741 10.09487521 19 11 C18.979375 9.865625 18.95875 8.73125 18.9375 7.5625 C19 4 19 4 20 3 C22.35313555 2.92728259 24.70833668 2.91629132 27.0625 2.9375 C28.99802734 2.95103516 28.99802734 2.95103516 30.97265625 2.96484375 C31.97167969 2.97644531 32.97070312 2.98804688 34 3 C33.94457031 4.22976562 33.88914062 5.45953125 33.83203125 6.7265625 C33.69079423 13.94382418 33.69079423 13.94382418 35 21 C38.25953759 24.32821504 41.63500507 25.56633598 46 27 C46.99 27.66 47.98 28.32 49 29 C50.01750284 34.365015 50.09728523 39.55202724 50 45 C48.2421875 45.65234375 48.2421875 45.65234375 46 46 C44.1328125 45.06640625 44.1328125 45.06640625 42.125 43.5625 C37.95522475 40.61478449 33.6817302 38.04254955 29.23144531 35.54101562 C25.09506562 33.20789687 20.99184018 30.82470937 16.90234375 28.41015625 C15.29081421 27.46076172 15.29081421 27.46076172 13.64672852 26.4921875 C11.48743279 25.21862035 9.33031654 23.94134979 7.17553711 22.66015625 C5.6771228 21.7784375 5.6771228 21.7784375 4.1484375 20.87890625 C3.25302246 20.3485376 2.35760742 19.81816895 1.43505859 19.27172852 C-1.6425963 17.63358122 -1.6425963 17.63358122 -5 17 C-7.5754335 18.04108319 -7.5754335 18.04108319 -10.21875 19.71875 C-11.23453125 20.32203125 -12.2503125 20.9253125 -13.296875 21.546875 C-14.88242188 22.51367188 -14.88242188 22.51367188 -16.5 23.5 C-18.57291667 24.73958333 -20.64583333 25.97916667 -22.71875 27.21875 C-23.74613281 27.8375 -24.77351563 28.45625 -25.83203125 29.09375 C-29.10155951 31.06111102 -32.37354366 33.02344254 -35.65625 34.96875 C-36.63400391 35.55076172 -37.61175781 36.13277344 -38.61914062 36.73242188 C-41 38 -41 38 -43 38 C-43 59.12 -43 80.24 -43 102 C-40.69 102 -38.38 102 -36 102 C-36.03251358 101.27416718 -36.06502716 100.54833435 -36.098526 99.80050659 C-36.3973955 92.94591008 -36.65199106 86.09092835 -36.85746098 79.23293877 C-36.96464232 75.7072082 -37.08861906 72.18377851 -37.25170898 68.66015625 C-37.43865762 64.60483628 -37.55120482 60.55035752 -37.66015625 56.4921875 C-37.7284816 55.23260223 -37.79680695 53.97301697 -37.86720276 52.67526245 C-38.01729125 44.11412164 -38.01729125 44.11412164 -35.11430359 40.93481445 C-32.80687876 39.3770945 -30.52675275 38.16115729 -28 37 C-26.70775513 36.17870605 -26.70775513 36.17870605 -25.3894043 35.34082031 C-24.70789307 34.92413086 -24.02638184 34.50744141 -23.32421875 34.078125 C-22.55916016 33.61019531 -21.79410156 33.14226563 -21.00585938 32.66015625 C-20.24080078 32.19480469 -19.47574219 31.72945312 -18.6875 31.25 C-17.90310547 30.76917969 -17.11871094 30.28835937 -16.31054688 29.79296875 C-11.97643769 27.14905168 -11.97643769 27.14905168 -10 26 C-9.3603833 25.62069336 -8.7207666 25.24138672 -8.06176758 24.85058594 C-5.4809958 23.78588388 -3.77461837 23.68781226 -1 24 C1.37182617 25.08569336 1.37182617 25.08569336 3.79296875 26.58984375 C4.67017578 27.12673828 5.54738281 27.66363281 6.45117188 28.21679688 C7.35416016 28.78462891 8.25714844 29.35246094 9.1875 29.9375 C10.99333382 31.05103389 12.79931606 32.16432715 14.60546875 33.27734375 C15.40106201 33.77484131 16.19665527 34.27233887 17.01635742 34.78491211 C18.97102352 36.02128083 18.97102352 36.02128083 21 37 C22.06382225 41.47747974 22.13438918 45.85088561 22.125 50.4375 C22.12886719 52.32275391 22.12886719 52.32275391 22.1328125 54.24609375 C22 58 22 58 21 65 C32.55 65 44.1 65 56 65 C56 54.77 56 44.54 56 34 C67.6947676 37.89825587 67.6947676 37.89825587 71 42 C72.28399571 47.59122361 72.04920516 53.06770671 71.87890625 58.7734375 C71.8621071 60.423925 71.84930209 62.07445757 71.84031677 63.7250061 C71.80605256 68.05647037 71.71774238 72.3851914 71.61798096 76.71557617 C71.52569035 81.13943367 71.4847619 85.56373729 71.43945312 89.98828125 C71.34310592 98.66024969 71.18488962 107.32946693 71 116 C66.05 116 61.1 116 56 116 C56 104.12 56 92.24 56 80 C44.78 80 33.56 80 22 80 C22.0394447 89.60281203 22.0394447 89.60281203 22.09008789 99.20556641 C22.09258545 100.40874512 22.09508301 101.61192383 22.09765625 102.8515625 C22.10289307 104.07697754 22.10812988 105.30239258 22.11352539 106.56494141 C22 110 22 110 21 116 C9.12 116 -2.76 116 -15 116 C-15.27336332 108.05610854 -15.53346959 100.12936323 -15.67275238 92.18484497 C-15.74122127 88.48542847 -15.83252684 84.78992801 -15.98071289 81.09277344 C-16.12275712 77.52622867 -16.1998347 73.9634582 -16.23340416 70.39430237 C-16.26886883 68.3813488 -16.37025394 66.3699028 -16.47285461 64.35925293 C-16.47591536 60.49185114 -16.34320501 57.63302134 -15 54 C-11.12774369 50.45180889 -5.49832184 46 0 46 C0 64.48 0 82.96 0 102 C2.31 102 4.62 102 7 102 C6.67 83.52 6.34 65.04 6 46 C1.05 43.525 1.05 43.525 -4 41 C-7.78510758 42.53450307 -9.83244613 43.67850286 -13 46 C-13.64613754 46.25579834 -14.29227509 46.51159668 -14.95799255 46.77514648 C-17.50214859 47.91735932 -19.10895475 48.93285388 -21 51 C-22.14319756 55.62316081 -21.90745373 60.21934383 -21.74609375 64.9453125 C-21.72861552 66.32099323 -21.71484198 67.69672557 -21.7046051 69.07247925 C-21.66848036 72.68599958 -21.58520828 76.29688746 -21.49102783 79.90930176 C-21.38492845 84.30111441 -21.33275065 88.69382964 -21.27408695 93.08648491 C-21.22764898 96.50331061 -21.17272145 99.91927806 -21.09190369 103.33547974 C-21.05305809 105.17286209 -21.05305809 105.17286209 -21.01342773 107.04736328 C-20.98707748 108.12704376 -20.96072723 109.20672424 -20.93357849 110.31912231 C-21 113 -21 113 -22 116 C-33.88 116 -45.76 116 -58 116 C-58.38500501 104.95993783 -58.69642479 93.92436961 -58.88080692 82.87909889 C-58.96933251 77.7493715 -59.08921209 72.62449352 -59.2824707 67.49755859 C-59.4680359 62.54336977 -59.56898093 57.59382165 -59.61291313 52.63642502 C-59.64418611 50.7515893 -59.70527655 48.86699218 -59.79741096 46.98414993 C-60.35848918 35.03618489 -60.35848918 35.03618489 -58 30 C-53.95101273 25.65857381 -48.61701961 23.34020202 -43.2438488 21.03272629 C-39.50388458 19.3114163 -36.08853129 17.08831286 -32.625 14.875 C-26.45800931 11 -26.45800931 11 -23 11 C-23 10.34 -23 9.68 -23 9 C-22.28714844 8.61328125 -21.57429688 8.2265625 -20.83984375 7.828125 C-19.88207031 7.30734375 -18.92429688 6.7865625 -17.9375 6.25 C-16.93332031 5.70730469 -15.92914063 5.16460937 -14.89453125 4.60546875 C-12.58153499 3.3225518 -10.3587846 1.97409337 -8.125 0.5625 C-4.45586082 -1.27206959 -3.81191789 -1.20094178 0 0 Z " fill="#3E529E" transform="translate(71,14)"/>
<path d="M0 0 C3.91778831 1.48005336 7.57538045 3.24072527 11.25 5.25 C12.83554688 6.09304687 12.83554688 6.09304687 14.453125 6.953125 C17 9 17 9 17.8515625 11.76953125 C18.01526362 15.33218449 18.13230204 18.8704555 18.125 22.4375 C18.12886719 24.32275391 18.12886719 24.32275391 18.1328125 26.24609375 C18 30 18 30 17 37 C28.55 37 40.1 37 52 37 C52 26.77 52 16.54 52 6 C63.6947676 9.89825587 63.6947676 9.89825587 67 14 C68.28399571 19.59122361 68.04920516 25.06770671 67.87890625 30.7734375 C67.8621071 32.423925 67.84930209 34.07445757 67.84031677 35.7250061 C67.80605256 40.05647037 67.71774238 44.3851914 67.61798096 48.71557617 C67.52569035 53.13943367 67.4847619 57.56373729 67.43945312 61.98828125 C67.34310592 70.66024969 67.18488962 79.32946693 67 88 C62.05 88 57.1 88 52 88 C52 76.12 52 64.24 52 52 C40.78 52 29.56 52 18 52 C18.0394447 61.60281203 18.0394447 61.60281203 18.09008789 71.20556641 C18.09258545 72.40874512 18.09508301 73.61192383 18.09765625 74.8515625 C18.10289307 76.07697754 18.10812988 77.30239258 18.11352539 78.56494141 C18 82 18 82 17 88 C5.12 88 -6.76 88 -19 88 C-19 84.04 -19 80.08 -19 76 C-17.51886719 76.01160156 -16.03773437 76.02320312 -14.51171875 76.03515625 C-12.57031376 76.04453502 -10.62890741 76.05363513 -8.6875 76.0625 C-7.22280273 76.07506836 -7.22280273 76.07506836 -5.72851562 76.08789062 C-4.79072266 76.09111328 -3.85292969 76.09433594 -2.88671875 76.09765625 C-1.59060669 76.10551147 -1.59060669 76.10551147 -0.26831055 76.11352539 C2.16728714 76.09335523 2.16728714 76.09335523 5 75 C5 55.86 5 36.72 5 17 C3.35 16.34 1.7 15.68 0 15 C-0.66 14.67 -1.32 14.34 -2 14 C-2 13.34 -2 12.68 -2 12 C-3.32 12 -4.64 12 -6 12 C-6.125 9.625 -6.125 9.625 -6 7 C-4 5 -4 5 -2 3 C-1.01 3 -0.02 3 1 3 C0.67 2.01 0.34 1.02 0 0 Z " fill="#3C51A0" transform="translate(75,42)"/>
<path d="M0 0 C2.078125 1.05078125 2.078125 1.05078125 5.203125 3.17578125 C6.193125 3.83578125 7.183125 4.49578125 8.203125 5.17578125 C8.203125 5.83578125 8.203125 6.49578125 8.203125 7.17578125 C8.863125 7.17578125 9.523125 7.17578125 10.203125 7.17578125 C11.02064803 8.75652689 11.83194497 10.34049348 12.640625 11.92578125 C13.09308594 12.8075 13.54554688 13.68921875 14.01171875 14.59765625 C17.3195271 21.75553661 17.30026835 30.40970816 15.078125 37.92578125 C12.52141199 44.50871989 8.54760521 50.24787895 2.11328125 53.4296875 C-7.89152007 57.33749333 -16.99870418 56.28786499 -26.796875 52.17578125 C-27.786875 51.51578125 -28.776875 50.85578125 -29.796875 50.17578125 C-29.796875 49.51578125 -29.796875 48.85578125 -29.796875 48.17578125 C-30.456875 48.17578125 -31.116875 48.17578125 -31.796875 48.17578125 C-31.796875 47.51578125 -31.796875 46.85578125 -31.796875 46.17578125 C-32.456875 46.17578125 -33.116875 46.17578125 -33.796875 46.17578125 C-38.54186815 36.77052696 -40.61926628 28.49309851 -38.02734375 18.0859375 C-32.48352079 1.63116417 -16.45822802 -4.85012027 0 0 Z M-19.796875 13.17578125 C-19.796875 13.83578125 -19.796875 14.49578125 -19.796875 15.17578125 C-20.456875 15.17578125 -21.116875 15.17578125 -21.796875 15.17578125 C-24.83838663 22.27264172 -26.07490869 27.34168017 -23.546875 34.92578125 C-21.24380622 39.20290898 -19.44802735 41.62539713 -14.796875 43.17578125 C-10.95403816 43.31552077 -7.4797381 43.35429744 -3.796875 42.17578125 C-3.796875 41.51578125 -3.796875 40.85578125 -3.796875 40.17578125 C-3.136875 40.17578125 -2.476875 40.17578125 -1.796875 40.17578125 C-1.796875 39.51578125 -1.796875 38.85578125 -1.796875 38.17578125 C-1.136875 38.17578125 -0.476875 38.17578125 0.203125 38.17578125 C2.7834531 32.55066599 2.87316473 27.27231556 2.203125 21.17578125 C0.70886584 17.63991414 0.70886584 17.63991414 -1.796875 15.17578125 C-2.51875 14.39203125 -3.240625 13.60828125 -3.984375 12.80078125 C-9.18073415 9.79844041 -14.64327 10.25423646 -19.796875 13.17578125 Z " fill="#192B53" transform="translate(258.796875,30.82421875)"/>
<path d="M0 0 C4.29 0 8.58 0 13 0 C14 1 14 1 14.11352539 3.04125977 C14.10828857 3.91580811 14.10305176 4.79035645 14.09765625 5.69140625 C14.09515869 6.54162354 14.09266113 7.39184082 14.09008789 8.26782227 C14.07643188 9.89868774 14.07643188 9.89868774 14.0625 11.5625 C14.041875 15.006875 14.02125 18.45125 14 22 C21.26 22 28.52 22 36 22 C36 14.74 36 7.48 36 0 C40.29 0 44.58 0 49 0 C49 18.15 49 36.3 49 55 C44.71 55 40.42 55 36 55 C36 47.74 36 40.48 36 33 C28.74 33 21.48 33 14 33 C14 40.26 14 47.52 14 55 C9.38 55 4.76 55 0 55 C0 36.85 0 18.7 0 0 Z " fill="#1D2E55" transform="translate(164,30)"/>
<path d="M0 0 C9.8690625 -0.0309375 9.8690625 -0.0309375 19.9375 -0.0625 C22.01667725 -0.071604 24.09585449 -0.08070801 26.23803711 -0.09008789 C27.87613866 -0.09300701 29.51424094 -0.09555558 31.15234375 -0.09765625 C32.44017761 -0.1053302 32.44017761 -0.1053302 33.75402832 -0.11315918 C35.83636052 -0.1134691 37.9186036 -0.06242176 40 0 C41 1 41 1 41.1328125 3.25 C41.13023437 4.1575 41.12765625 5.065 41.125 6 C41.12886719 7.36125 41.12886719 7.36125 41.1328125 8.75 C41 11 41 11 40 12 C38.00035018 12.08758003 35.9976389 12.10696576 33.99609375 12.09765625 C32.78115234 12.09443359 31.56621094 12.09121094 30.31445312 12.08789062 C29.03505859 12.07951172 27.75566406 12.07113281 26.4375 12.0625 C25.15423828 12.05798828 23.87097656 12.05347656 22.54882812 12.04882812 C19.36583978 12.03699545 16.18294238 12.02051068 13 12 C13 15.3 13 18.6 13 22 C13.7520874 21.99476318 14.5041748 21.98952637 15.27905273 21.98413086 C18.66519342 21.96342773 22.05132084 21.95036123 25.4375 21.9375 C26.62150391 21.92912109 27.80550781 21.92074219 29.02539062 21.91210938 C30.15009766 21.90888672 31.27480469 21.90566406 32.43359375 21.90234375 C33.47572021 21.89710693 34.51784668 21.89187012 35.59155273 21.88647461 C38 22 38 22 39 23 C39 26.3 39 29.6 39 33 C30.42 33 21.84 33 13 33 C13 36.63 13 40.26 13 44 C13.81267334 43.99476318 14.62534668 43.98952637 15.46264648 43.98413086 C19.12092322 43.96343006 22.77918767 43.95036197 26.4375 43.9375 C27.71689453 43.92912109 28.99628906 43.92074219 30.31445312 43.91210938 C31.52939453 43.90888672 32.74433594 43.90566406 33.99609375 43.90234375 C35.12200928 43.89710693 36.2479248 43.89187012 37.40795898 43.88647461 C40 44 40 44 41 45 C41 48.3 41 51.6 41 55 C27.47 55 13.94 55 0 55 C0 36.85 0 18.7 0 0 Z " fill="#192B53" transform="translate(333,30)"/>
<path d="M0 0 C4.434375 -0.061875 8.86875 -0.12375 13.4375 -0.1875 C14.81736084 -0.21481201 16.19722168 -0.24212402 17.61889648 -0.27026367 C25.90425064 -0.32596655 33.10153781 -0.03213726 39.8125 5.1875 C43.5526265 9.99623407 46.44245039 14.20367918 46.0625 20.5 C44.9574394 26.89830089 41.95058823 31.47854118 36.875 35.4375 C33.48459193 37.28011308 30.79128313 38.11624826 26.98828125 38.31640625 C26.23095703 38.35830078 25.47363281 38.40019531 24.69335938 38.44335938 C23.90767578 38.48267578 23.12199219 38.52199219 22.3125 38.5625 C21.11657227 38.62727539 21.11657227 38.62727539 19.89648438 38.69335938 C17.93118553 38.79927368 15.96561504 38.90012551 14 39 C14 44.28 14 49.56 14 55 C9.38 55 4.76 55 0 55 C0 36.85 0 18.7 0 0 Z M13 14 C12.75660449 16.89883083 12.75660449 16.89883083 12.875 20.125 C12.89304687 21.22070312 12.91109375 22.31640625 12.9296875 23.4453125 C12.95289063 24.28835937 12.97609375 25.13140625 13 26 C17.17835158 28.08917579 22.52944498 27.37546086 26.9375 26.25 C29.4462935 24.72951909 30.1948329 23.81808486 31 21 C30.84985446 17.99708917 30.15919264 16.26773307 28.625 13.6875 C24.23132859 10.86299695 16.86747843 10.13252157 13 14 Z " fill="#15274F" transform="translate(282,30)"/>
<path d="M0 0 C1.98 0.66 3.96 1.32 6 2 C6.76179565 2.23192551 7.52359131 2.46385101 8.30847168 2.70280457 C10.89349462 3.83018438 12.24617707 4.7638362 14 7 C15.15952276 12.55188544 14.93054866 18.02971821 14.78125 23.67578125 C14.76632131 25.32770547 14.75493724 26.97966521 14.74694824 28.63163757 C14.71646197 32.97106433 14.63793415 37.30833461 14.54931641 41.64691162 C14.4673462 46.07746201 14.43091322 50.50836237 14.390625 54.93945312 C14.30493212 63.62728966 14.16847295 72.31337629 14 81 C13.01 80.01 13.01 80.01 12 79 C9.99453311 79.29868656 7.99422795 79.63371323 6 80 C5.01 79.67 4.02 79.34 3 79 C2.67 67.78 2.34 56.56 2 45 C-9.88 44.67 -21.76 44.34 -34 44 C-32.02 41.03 -32.02 41.03 -30 38 C-30.66 37.01 -31.32 36.02 -32 35 C-30 33 -30 33 -27.47802734 32.77294922 C-26.4411377 32.78342285 -25.40424805 32.79389648 -24.3359375 32.8046875 C-23.21445313 32.81113281 -22.09296875 32.81757812 -20.9375 32.82421875 C-19.761875 32.84097656 -18.58625 32.85773438 -17.375 32.875 C-16.19164063 32.88402344 -15.00828125 32.89304688 -13.7890625 32.90234375 C-10.85917477 32.92597188 -7.9296866 32.95891486 -5 33 C-5 32.34 -5 31.68 -5 31 C-3.35 31 -1.7 31 0 31 C0 20.77 0 10.54 0 0 Z " fill="#3C509F" transform="translate(127,48)"/>
<path d="M0 0 C5.05670305 -0.68255878 8.14812844 1.67880699 12.125 4.4375 C16.80959468 7.69143598 16.80959468 7.69143598 22 10 C21.9690625 8.2984375 21.9690625 8.2984375 21.9375 6.5625 C22 3 22 3 23 2 C25.35313555 1.92728259 27.70833668 1.91629132 30.0625 1.9375 C31.35285156 1.94652344 32.64320312 1.95554687 33.97265625 1.96484375 C34.97167969 1.97644531 35.97070312 1.98804687 37 2 C36.94457031 3.22976562 36.88914063 4.45953125 36.83203125 5.7265625 C36.69079423 12.94382418 36.69079423 12.94382418 38 20 C41.25953759 23.32821504 44.63500507 24.56633598 49 26 C49.99 26.66 50.98 27.32 52 28 C53.01750284 33.365015 53.09728523 38.55202724 53 44 C51.2421875 44.65234375 51.2421875 44.65234375 49 45 C47.1328125 44.06640625 47.1328125 44.06640625 45.125 42.5625 C41.48933406 39.99235935 37.81655268 37.68757782 33.9375 35.5 C32.75369507 34.82979996 31.57011812 34.15919713 30.38671875 33.48828125 C29.71688965 33.10881348 29.04706055 32.7293457 28.35693359 32.33837891 C23.31074559 29.47291354 18.27711411 26.58628437 13.25 23.6875 C12.17741943 23.07648437 11.10483887 22.46546875 9.99975586 21.8359375 C8.99436768 21.25457031 7.98897949 20.67320313 6.953125 20.07421875 C6.04723633 19.55432373 5.14134766 19.03442871 4.20800781 18.4987793 C2 17 2 17 0 14 C-0.1953125 10.64453125 -0.1953125 10.64453125 -0.125 6.8125 C-0.10695313 5.54019531 -0.08890625 4.26789062 -0.0703125 2.95703125 C-0.04710938 1.98121094 -0.02390625 1.00539063 0 0 Z " fill="#E90C4D" transform="translate(68,15)"/>
<path d="M0 0 C8 0 8 0 10.25 2.125 C10.8275 3.07375 11.405 4.0225 12 5 C13.11375 6.5778125 13.11375 6.5778125 14.25 8.1875 C16 11 16 11 16 13 C16.66 13 17.32 13 18 13 C18.66 14.32 19.32 15.64 20 17 C21.13965577 13.5810327 21.06378508 10.97088393 21 7.375 C20.96247826 5.25033129 20.95317941 3.12448413 21 1 C21.33 0.67 21.66 0.34 22 0 C24.97 0 27.94 0 31 0 C31 11.88 31 23.76 31 36 C22 36 22 36 19.51171875 33.8046875 C18.60873047 32.35449219 18.60873047 32.35449219 17.6875 30.875 C16.76517578 29.44800781 16.76517578 29.44800781 15.82421875 27.9921875 C15.22222656 27.00476563 14.62023437 26.01734375 14 25 C12.68 23.02 11.36 21.04 10 19 C9.67 24.61 9.34 30.22 9 36 C6.03 36 3.06 36 0 36 C0 24.12 0 12.24 0 0 Z " fill="#1F2F53" transform="translate(344,94)"/>
<path d="M0 0 C4.27924217 2.88848847 4.27924217 2.88848847 5.5 4.6875 C6.1875 8.375 6.1875 8.375 6.5 11.6875 C3.2 11.6875 -0.1 11.6875 -3.5 11.6875 C-3.5 10.6975 -3.5 9.7075 -3.5 8.6875 C-6.52451312 8.03477388 -9.4000349 7.58078864 -12.5 7.6875 C-15.28475509 9.4803792 -15.28475509 9.4803792 -16.5 12.6875 C-17.04579718 16.74887312 -16.80158185 20.78275445 -15.5 24.6875 C-14.84 24.6875 -14.18 24.6875 -13.5 24.6875 C-13.5 25.3475 -13.5 26.0075 -13.5 26.6875 C-7.91499433 26.48851292 -7.91499433 26.48851292 -3.5 23.6875 C-5.48 23.0275 -7.46 22.3675 -9.5 21.6875 C-9.5 19.3775 -9.5 17.0675 -9.5 14.6875 C-4.22 14.6875 1.06 14.6875 6.5 14.6875 C6.76785714 27.00892857 6.76785714 27.00892857 4.5 30.6875 C3.84 30.6875 3.18 30.6875 2.5 30.6875 C2.5 31.3475 2.5 32.0075 2.5 32.6875 C-4.33459056 36.17750369 -9.82781954 36.72795113 -17.25 34.625 C-22.10772849 31.72904648 -24.72189361 28.02181918 -26.5 22.6875 C-27.05216036 16.01910177 -26.98097079 10.48911799 -23.5 4.6875 C-17.08702467 -2.04086756 -8.60907421 -3.22840283 0 0 Z " fill="#34405D" transform="translate(189.5,95.3125)"/>
<path d="M0 0 C0.02312916 7.28421548 0.04091801 14.5684231 0.05181217 21.85266781 C0.05703975 25.23471813 0.06413511 28.6167434 0.07543945 31.9987793 C0.08834267 35.88329777 0.09322924 39.76780597 0.09765625 43.65234375 C0.10281754 44.87211411 0.10797882 46.09188446 0.11329651 47.34861755 C0.11337204 48.46970413 0.11344757 49.59079071 0.11352539 50.74584961 C0.115746 51.73846298 0.11796661 52.73107635 0.12025452 53.75376892 C0 56 0 56 -1 57 C-3.35313555 57.07271741 -5.70833668 57.08370868 -8.0625 57.0625 C-9.35285156 57.05347656 -10.64320312 57.04445312 -11.97265625 57.03515625 C-12.97167969 57.02355469 -13.97070312 57.01195312 -15 57 C-15.33078131 50.16950724 -15.55770383 43.34108654 -15.71411133 36.50439453 C-15.77932368 34.18166971 -15.86792541 31.85947538 -15.98071289 29.53857422 C-16.87231263 10.71412003 -16.87231263 10.71412003 -13.71429443 6.13623047 C-10.01893764 2.69968859 -5.14130599 0 0 0 Z " fill="#EA0A4F" transform="translate(71,60)"/>
<path d="M0 0 C4.98757123 2.48292733 8.48764248 5.97528495 11 11 C11.17603147 13.41249692 11.26744968 15.83150895 11.3125 18.25 C11.36857422 20.20679688 11.36857422 20.20679688 11.42578125 22.203125 C10.8096181 27.69771752 8.46952844 30.67384019 4.4375 34.3125 C-0.16817763 37.50104605 -4.58935539 37.48695801 -10 37 C-15.71341083 35.28597675 -18.71306531 32.97735824 -22 28 C-24.8459387 21.16125178 -23.93331899 15.2391659 -21.9375 8.3125 C-17.06304988 -0.0212373 -9.17858243 -1.51921364 0 0 Z M-11.3125 9.4375 C-13.75184133 13.14168498 -14.22087188 16.59779503 -14 21 C-12.50647636 24.82577319 -12.50647636 24.82577319 -10 28 C-4.73266351 28.5469623 -4.73266351 28.5469623 -0.0625 26.6875 C2.43767196 22.71663865 2.36656745 18.53627218 2 14 C0.82986774 10.5796134 0.12689277 10.08459518 -3 8 C-6.47924476 7.55584109 -8.30917755 7.57056983 -11.3125 9.4375 Z " fill="#223255" transform="translate(329,94)"/>
<path d="M0 0 C3.18274636 0.44689247 5.81428126 1.06947479 8.5 2.875 C13.03547559 10.68609686 13.69441749 19.6166472 12.02734375 28.3515625 C9.95192529 35.58445797 6.03891767 41.7895505 -0.625 45.5 C-2.5703125 46.4765625 -2.5703125 46.4765625 -4.5 46.875 C-5.84504151 46.23228267 -7.17891752 45.5656253 -8.5 44.875 C-10.85171131 45.47361742 -13.1859378 46.14424352 -15.5 46.875 C-18.4375 47 -18.4375 47 -20.5 46.875 C-20.83 45.225 -21.16 43.575 -21.5 41.875 C-22.49 41.545 -23.48 41.215 -24.5 40.875 C-23.51 39.885 -22.52 38.895 -21.5 37.875 C-22.16 37.215 -22.82 36.555 -23.5 35.875 C-15.58 35.38 -15.58 35.38 -7.5 34.875 C-7.5 34.215 -7.5 33.555 -7.5 32.875 C-6.84 32.875 -6.18 32.875 -5.5 32.875 C-5.5 32.215 -5.5 31.555 -5.5 30.875 C-4.84 30.875 -4.18 30.875 -3.5 30.875 C-2.1730712 24.99551872 -0.86876105 17.53638349 -3.39453125 11.8671875 C-4.37152175 10.49318672 -5.43058121 9.17835415 -6.5 7.875 C-6.5 6.885 -6.5 5.895 -6.5 4.875 C-7.16 4.545 -7.82 4.215 -8.5 3.875 C-5.97064029 0.24591868 -4.24744213 -0.42684344 0 0 Z " fill="#1D2F56" transform="translate(262.5,38.125)"/>
<path d="M0 0 C2.9612709 1.84532398 4.92085177 3.91000691 5.9609375 7.23828125 C5.9609375 8.55828125 5.9609375 9.87828125 5.9609375 11.23828125 C4.50351287 11.31924928 3.04480943 11.37745899 1.5859375 11.42578125 C0.77382812 11.46058594 -0.03828125 11.49539062 -0.875 11.53125 C-1.58914062 11.43457031 -2.30328125 11.33789062 -3.0390625 11.23828125 C-3.6990625 10.24828125 -4.3590625 9.25828125 -5.0390625 8.23828125 C-8.62263491 7.98812252 -8.62263491 7.98812252 -12.0390625 8.23828125 C-12.3690625 9.55828125 -12.6990625 10.87828125 -13.0390625 12.23828125 C-12.0490625 12.34140625 -11.0590625 12.44453125 -10.0390625 12.55078125 C-4.7418879 13.32440513 -0.08114243 14.96198129 4.4609375 17.80078125 C6.90158503 21.76683349 6.93755395 25.7341845 5.9609375 30.23828125 C3.4783784 33.77793003 0.14449693 35.43952983 -4.0390625 36.23828125 C-10.12792605 36.82353246 -14.68267818 36.23785647 -20.0390625 33.23828125 C-22.71076295 30.73894857 -23.01354384 29.68060472 -23.2265625 25.98828125 C-23.13375 24.62703125 -23.13375 24.62703125 -23.0390625 23.23828125 C-20.3990625 23.23828125 -17.7590625 23.23828125 -15.0390625 23.23828125 C-15.0390625 23.89828125 -15.0390625 24.55828125 -15.0390625 25.23828125 C-14.3790625 25.23828125 -13.7190625 25.23828125 -13.0390625 25.23828125 C-13.0390625 25.89828125 -13.0390625 26.55828125 -13.0390625 27.23828125 C-10.0690625 26.90828125 -7.0990625 26.57828125 -4.0390625 26.23828125 C-4.3690625 25.24828125 -4.6990625 24.25828125 -5.0390625 23.23828125 C-7.8938726 22.16406715 -7.8938726 22.16406715 -11.2890625 21.36328125 C-20.1912152 18.77374177 -20.1912152 18.77374177 -23.0390625 14.23828125 C-23.58619703 10.40833955 -23.37623277 8.06247525 -21.9140625 4.48828125 C-16.73301345 -1.72897761 -7.44569915 -2.78143934 0 0 Z " fill="#1C2C50" transform="translate(252.0390625,94.76171875)"/>
<path d="M0 0 C6.1565625 -0.0309375 6.1565625 -0.0309375 12.4375 -0.0625 C14.38160767 -0.07615601 14.38160767 -0.07615601 16.36499023 -0.09008789 C17.88394897 -0.09383423 17.88394897 -0.09383423 19.43359375 -0.09765625 C20.47572021 -0.10289307 21.51784668 -0.10812988 22.59155273 -0.11352539 C25 0 25 0 26 1 C26 3.31 26 5.62 26 8 C20.39 8 14.78 8 9 8 C9 9.98 9 11.96 9 14 C9.99902344 13.98839844 10.99804688 13.97679688 12.02734375 13.96484375 C13.31769531 13.95582031 14.60804688 13.94679688 15.9375 13.9375 C17.22527344 13.92589844 18.51304687 13.91429688 19.83984375 13.90234375 C23 14 23 14 24 15 C24 17.31 24 19.62 24 22 C19.05 22 14.1 22 9 22 C9 23.98 9 25.96 9 28 C14.61 28 20.22 28 26 28 C26 30.64 26 33.28 26 36 C17.42 36 8.84 36 0 36 C0 24.12 0 12.24 0 0 Z " fill="#364567" transform="translate(200,94)"/>
<path d="M0 0 C4.434375 -0.061875 8.86875 -0.12375 13.4375 -0.1875 C14.81736084 -0.21481201 16.19722168 -0.24212402 17.61889648 -0.27026367 C25.90425064 -0.32596655 33.10153781 -0.03213726 39.8125 5.1875 C43.5526265 9.99623407 46.44245039 14.20367918 46.0625 20.5 C44.98008664 26.76717335 41.95526286 31.2669261 37.25 35.4375 C33.16161625 37.40306911 29.4906842 37.80041404 25 38 C25 37.01 25 36.02 25 35 C24.34 34.67 23.68 34.34 23 34 C23.66 34 24.32 34 25 34 C25.103125 33.38125 25.20625 32.7625 25.3125 32.125 C26 30 26 30 29 28 C27.35 27.67 25.7 27.34 24 27 C27 25 27 25 29 25 C29.185625 23.72125 29.37125 22.4425 29.5625 21.125 C29.66691406 20.40570313 29.77132813 19.68640625 29.87890625 18.9453125 C30.1684297 16.91859333 30.1684297 16.91859333 29 15 C29.66 14.67 30.32 14.34 31 14 C31 11.69 31 9.38 31 7 C31.66 6.67 32.32 6.34 33 6 C32.505 5.01 32.505 5.01 32 4 C25.75992843 2.62389545 19.42255579 2.88617739 13.0625 2.9375 C11.99708984 2.94201172 10.93167969 2.94652344 9.83398438 2.95117188 C7.22259709 2.96288213 4.61132876 2.97928276 2 3 C2.01160156 3.928125 2.02320313 4.85625 2.03515625 5.8125 C2.16028168 21.55093267 1.54438575 37.27362239 1 53 C0.67 53 0.34 53 0 53 C0 35.51 0 18.02 0 0 Z " fill="#1C2D54" transform="translate(282,30)"/>
<path d="M0 0 C9.9 0 19.8 0 30 0 C30 2.64 30 5.28 30 8 C26.7 8 23.4 8 20 8 C20 17.24 20 26.48 20 36 C16.7 36 13.4 36 10 36 C10 26.76 10 17.52 10 8 C6.7 8 3.4 8 0 8 C0 5.36 0 2.72 0 0 Z " fill="#334162" transform="translate(260,94)"/>
<path d="M0 0 C4.27924217 2.88848847 4.27924217 2.88848847 5.5 4.6875 C6.1875 8.375 6.1875 8.375 6.5 11.6875 C3.2 11.6875 -0.1 11.6875 -3.5 11.6875 C-3.5 10.6975 -3.5 9.7075 -3.5 8.6875 C-6.52465236 8.03474383 -9.40009713 7.60213262 -12.5 7.6875 C-15.36155485 9.23689445 -15.36155485 9.23689445 -16.5 12.6875 C-16.80832606 16.71141633 -16.73117879 20.6611361 -16.5 24.6875 C-18.48 25.3475 -20.46 26.0075 -22.5 26.6875 C-26.05839307 23.12910693 -25.57251564 17.89491515 -25.75 13.0625 C-25.68979814 9.12262246 -25.07616099 6.79665982 -22.5 3.6875 C-16.01429124 -2.14963788 -8.16365202 -3.06136951 0 0 Z " fill="#19294D" transform="translate(189.5,95.3125)"/>
<path d="M0 0 C1.13622803 0.0002417 1.13622803 0.0002417 2.29541016 0.00048828 C8.06923169 0.11882982 11.84141009 1.07965886 16.6875 4.375 C17.6775 5.035 18.6675 5.695 19.6875 6.375 C19.6875 7.035 19.6875 7.695 19.6875 8.375 C20.3475 8.375 21.0075 8.375 21.6875 8.375 C21.6875 9.035 21.6875 9.695 21.6875 10.375 C21.00042969 10.25640625 20.31335938 10.1378125 19.60546875 10.015625 C18.70441406 9.88671875 17.80335938 9.7578125 16.875 9.625 C15.98167969 9.48578125 15.08835937 9.3465625 14.16796875 9.203125 C11.5466368 9.10368991 11.5466368 9.10368991 9.92578125 11.234375 C9.14016462 12.59247567 8.38915959 13.97168081 7.6875 15.375 C6.6975 14.715 5.7075 14.055 4.6875 13.375 C2.53806665 13.09622601 2.53806665 13.09622601 0.25 13.1875 C-0.51183594 13.19394531 -1.27367187 13.20039062 -2.05859375 13.20703125 C-4.25187857 13.37048229 -6.20120807 13.77383487 -8.3125 14.375 C-8.3125 15.035 -8.3125 15.695 -8.3125 16.375 C-8.9725 16.375 -9.6325 16.375 -10.3125 16.375 C-11.3025 21.325 -12.2925 26.275 -13.3125 31.375 C-13.6425 31.375 -13.9725 31.375 -14.3125 31.375 C-14.6425 27.415 -14.9725 23.455 -15.3125 19.375 C-14.6525 19.375 -13.9925 19.375 -13.3125 19.375 C-12.9825 18.385 -12.6525 17.395 -12.3125 16.375 C-11.94125 15.570625 -11.57 14.76625 -11.1875 13.9375 C-10.246191 11.18080936 -10.31983591 10.05519304 -11.3125 7.375 C-14.2825 6.88 -14.2825 6.88 -17.3125 6.375 C-12.22920665 0.72689627 -7.40372326 -0.01457107 0 0 Z " fill="#1F2F56" transform="translate(247.3125,29.625)"/>
<path d="M0 0 C0.33 0 0.66 0 1 0 C1 24.42 1 48.84 1 74 C-3.95 74 -8.9 74 -14 74 C-14 62.12 -14 50.24 -14 38 C-25.22 38 -36.44 38 -48 38 C-47.9605553 47.60281203 -47.9605553 47.60281203 -47.90991211 57.20556641 C-47.90741455 58.40874512 -47.90491699 59.61192383 -47.90234375 60.8515625 C-47.89710693 62.07697754 -47.89187012 63.30239258 -47.88647461 64.56494141 C-47.99353324 67.80432849 -48.38521382 70.82183197 -49 74 C-49.33 74 -49.66 74 -50 74 C-50 61.79 -50 49.58 -50 37 C-37.46 36.67 -24.92 36.34 -12 36 C-11.14326568 40.28367158 -10.88393861 43.72557331 -10.90234375 48.05078125 C-10.9037587 48.70958786 -10.90517365 49.36839447 -10.90663147 50.04716492 C-10.912195 52.13565762 -10.92474053 54.22404011 -10.9375 56.3125 C-10.94251972 57.73502449 -10.9470818 59.15755066 -10.95117188 60.58007812 C-10.96215243 64.05342077 -10.97939165 67.52669961 -11 71 C-8.03 71 -5.06 71 -2 71 C-2 49.22 -2 27.44 -2 5 C-1.67 5 -1.34 5 -1 5 C-0.67 3.35 -0.34 1.7 0 0 Z " fill="#7C93C0" transform="translate(141,56)"/>
<path d="M0 0 C2.97 0 5.94 0 9 0 C9 11.88 9 23.76 9 36 C6.03 36 3.06 36 0 36 C0 24.12 0 12.24 0 0 Z " fill="#283759" transform="translate(293,94)"/>
<path d="M0 0 C0.33 0.66 0.66 1.32 1 2 C3.01808442 2.22784824 5.03620297 2.45541144 7.0546875 2.6796875 C9 3 9 3 11 4.0625 C12.6663199 7.29099481 12.17649121 10.41134531 12 14 C11.34 14 10.68 14 10 14 C10.33 15.32 10.66 16.64 11 18 C4.99395077 21.06691876 -0.37402353 22.232403 -7.0234375 20.4609375 C-10.69692544 19.05044213 -13.26583428 17.5703412 -15 14 C-15.1875 10.75 -15.1875 10.75 -15 8 C-12.36 8 -9.72 8 -7 8 C-7 8.66 -7 9.32 -7 10 C-6.34 10 -5.68 10 -5 10 C-5 10.66 -5 11.32 -5 12 C-0.545 11.505 -0.545 11.505 4 11 C4 8.69 4 6.38 4 4 C1.525 3.505 1.525 3.505 -1 3 C-0.67 2.01 -0.34 1.02 0 0 Z " fill="#2E3D5F" transform="translate(244,110)"/>
<path d="M0 0 C0.66 0.33 1.32 0.66 2 1 C2 1.99 2 2.98 2 4 C1.34 4 0.68 4 0 4 C-0.33 4.66 -0.66 5.32 -1 6 C-1.66 6.66 -2.32 7.32 -3 8 C-2.01 8.33 -1.02 8.66 0 9 C0 9.99 0 10.98 0 12 C0.66 12 1.32 12 2 12 C2.33 11.34 2.66 10.68 3 10 C2.96519531 10.58007812 2.93039062 11.16015625 2.89453125 11.7578125 C2.71255476 17.009134 3.16622289 20.39511219 6 25 C10.0303028 25.34646126 10.0303028 25.34646126 14 25 C16.5404226 22.66169042 16.5404226 22.66169042 18 20 C18.33 22.31 18.66 24.62 19 27 C15.04 27.33 11.08 27.66 7 28 C6.67 29.98 6.34 31.96 6 34 C2.06787034 33.65304738 -0.68123817 32.35330515 -3.63671875 29.7109375 C-7.16373508 25.28448148 -8.38402883 19.3793259 -7.875 13.8125 C-6.73749139 8.8562125 -5.74893591 4.54905752 -1.8125 1.0625 C-1.214375 0.711875 -0.61625 0.36125 0 0 Z " fill="#394763" transform="translate(313,96)"/>
<path d="M0 0 C0.02312916 7.28421548 0.04091801 14.5684231 0.05181217 21.85266781 C0.05703975 25.23471813 0.06413511 28.6167434 0.07543945 31.9987793 C0.08834267 35.88329777 0.09322924 39.76780597 0.09765625 43.65234375 C0.10281754 44.87211411 0.10797882 46.09188446 0.11329651 47.34861755 C0.11337204 48.46970413 0.11344757 49.59079071 0.11352539 50.74584961 C0.115746 51.73846298 0.11796661 52.73107635 0.12025452 53.75376892 C0 56 0 56 -1 57 C-3.35313555 57.07271741 -5.70833668 57.08370868 -8.0625 57.0625 C-9.35285156 57.05347656 -10.64320312 57.04445312 -11.97265625 57.03515625 C-12.97167969 57.02355469 -13.97070312 57.01195312 -15 57 C-15.33078131 50.16950724 -15.55770383 43.34108654 -15.71411133 36.50439453 C-15.77932368 34.18166971 -15.86792541 31.85947538 -15.98071289 29.53857422 C-16.87231263 10.71412003 -16.87231263 10.71412003 -13.71429443 6.13623047 C-10.01893764 2.69968859 -5.14130599 0 0 0 Z M-8 6 C-8 6.66 -8 7.32 -8 8 C-9.65 8.66 -11.3 9.32 -13 10 C-13.02527124 16.24795675 -13.04283344 22.49590041 -13.05493164 28.74389648 C-13.05997298 30.87118014 -13.06680591 32.99846031 -13.07543945 35.12573242 C-13.08751379 38.17627826 -13.09323014 41.22677845 -13.09765625 44.27734375 C-13.10281754 45.23462875 -13.10797882 46.19191376 -13.11329651 47.1782074 C-13.11337204 48.05904495 -13.11344757 48.93988251 -13.11352539 49.84741211 C-13.115746 50.62684677 -13.11796661 51.40628143 -13.12025452 52.20933533 C-13.19571386 54.02366535 -13.19571386 54.02366535 -12 55 C-8.7 55 -5.4 55 -2 55 C-2 38.83 -2 22.66 -2 6 C-3.98 6 -5.96 6 -8 6 Z " fill="#C8426E" transform="translate(71,60)"/>
<path d="M0 0 C-0.66 0.66 -1.32 1.32 -2 2 C-2.46486718 5.12196336 -2.46486718 5.12196336 -2.625 8.625 C-2.69976562 9.81351563 -2.77453125 11.00203125 -2.8515625 12.2265625 C-2.90054688 13.14179688 -2.94953125 14.05703125 -3 15 C-2.34 15.33 -1.68 15.66 -1 16 C-2.03125 16.433125 -3.0625 16.86625 -4.125 17.3125 C-6.57820982 18.3462114 -8.78874977 19.44169987 -11.125 20.75 C-14.34047439 22.14803235 -15.71899462 22.06150174 -19 21 C-19 19 -19 19 -17 17 C-17.33 16.01 -17.66 15.02 -18 14 C-18 12.66666667 -18 11.33333333 -18 10 C-19.98 10.99 -19.98 10.99 -22 12 C-20.49882955 7.30209248 -16.6959427 5.56046751 -12.6875 3.1875 C-12.02298828 2.76791016 -11.35847656 2.34832031 -10.67382812 1.91601562 C-6.81292436 -0.4020542 -4.49391989 -1.6949988 0 0 Z " fill="#42529B" transform="translate(71,14)"/>
<path d="M0 0 C9.8690625 -0.0309375 9.8690625 -0.0309375 19.9375 -0.0625 C22.01667725 -0.071604 24.09585449 -0.08070801 26.23803711 -0.09008789 C27.87613866 -0.09300701 29.51424094 -0.09555558 31.15234375 -0.09765625 C32.44017761 -0.1053302 32.44017761 -0.1053302 33.75402832 -0.11315918 C35.83636052 -0.1134691 37.9186036 -0.06242176 40 0 C41 1 41 1 41.1328125 3.25 C41.13023437 4.1575 41.12765625 5.065 41.125 6 C41.12886719 7.36125 41.12886719 7.36125 41.1328125 8.75 C41 11 41 11 40 12 C38.07332493 12.08748207 36.14348139 12.10697334 34.21484375 12.09765625 C33.04501953 12.09443359 31.87519531 12.09121094 30.66992188 12.08789062 C29.43822266 12.07951172 28.20652344 12.07113281 26.9375 12.0625 C25.08415039 12.05573242 25.08415039 12.05573242 23.19335938 12.04882812 C20.12885883 12.03699608 17.06445279 12.02051173 14 12 C14 11.67 14 11.34 14 11 C21.92 11 29.84 11 38 11 C38 8.03 38 5.06 38 2 C20.675 2.495 20.675 2.495 3 3 C3 20.16 3 37.32 3 55 C2.01 55 1.02 55 0 55 C0 36.85 0 18.7 0 0 Z " fill="#2E3958" transform="translate(333,30)"/>
<path d="M0 0 C2.00720923 0.28674418 4.0085944 0.61866701 6 1 C6.05451714 3.04136395 6.09302485 5.08315856 6.125 7.125 C6.14820313 8.26195313 6.17140625 9.39890625 6.1953125 10.5703125 C5.95615667 14.76988882 5.38657206 18.37396424 2.59765625 21.64453125 C-1.63243334 24.86284368 -4.41434588 26.13892252 -9.6875 26.0625 C-10.89986328 26.04896484 -10.89986328 26.04896484 -12.13671875 26.03515625 C-12.75160156 26.02355469 -13.36648438 26.01195312 -14 26 C-14.625 23.6875 -14.625 23.6875 -15 21 C-14.01 19.515 -14.01 19.515 -13 18 C-10.3984375 17.48828125 -10.3984375 17.48828125 -7.375 17.3125 C-5.87066406 17.21388672 -5.87066406 17.21388672 -4.3359375 17.11328125 C-3.56507813 17.07589844 -2.79421875 17.03851563 -2 17 C-1.90912109 15.28490234 -1.90912109 15.28490234 -1.81640625 13.53515625 C-1.73201572 12.04425695 -1.64736698 10.55337225 -1.5625 9.0625 C-1.52318359 8.30775391 -1.48386719 7.55300781 -1.44335938 6.77539062 C-1.11328125 1.11328125 -1.11328125 1.11328125 0 0 Z " fill="#1C2C4F" transform="translate(333,105)"/>
<path d="M0 0 C2.0880823 3.39313374 2.50476722 6.04599009 2 10 C0 11.875 0 11.875 -2 13 C-2.515625 12.62875 -3.03125 12.2575 -3.5625 11.875 C-7.11961523 10.59808684 -9.46232717 11.88284016 -13 13 C-15.9375 13.125 -15.9375 13.125 -18 13 C-18.33 11.35 -18.66 9.7 -19 8 C-19.99 7.67 -20.98 7.34 -22 7 C-21.01 6.01 -20.02 5.02 -19 4 C-19.66 3.34 -20.32 2.68 -21 2 C-18.3755252 1.75190045 -15.75232855 1.5258301 -13.125 1.3125 C-12.37863281 1.23966797 -11.63226563 1.16683594 -10.86328125 1.09179688 C-8.6953125 0.92578125 -8.6953125 0.92578125 -5 1 C-4.34 1.99 -3.68 2.98 -3 4 C-2.67 3.01 -2.34 2.02 -2 1 C-1.34 0.67 -0.68 0.34 0 0 Z " fill="#1B2C55" transform="translate(260,72)"/>
<path d="M0 0 C0.99 0 1.98 0 3 0 C3.02315955 8.29274802 3.04093355 16.58548254 3.05181217 24.87825489 C3.05703308 28.72882542 3.06411638 32.57937384 3.07543945 36.42993164 C3.08629644 40.14519659 3.09228282 43.86044025 3.09487724 47.57571983 C3.09672641 48.99390689 3.10033731 50.41209276 3.10573006 51.83027077 C3.11297764 53.81497692 3.11340838 55.79970444 3.11352539 57.78442383 C3.115746 58.91471512 3.11796661 60.04500641 3.12025452 61.20954895 C3 64 3 64 2 67 C-9.88 67 -21.76 67 -34 67 C-33.01 66.505 -33.01 66.505 -32 66 C-32 64.02 -32 62.04 -32 60 C-31.67 60 -31.34 60 -31 60 C-31 61.65 -31 63.3 -31 65 C-16.15 64.505 -16.15 64.505 -1 64 C-0.67 42.88 -0.34 21.76 0 0 Z " fill="#4E5A91" transform="translate(47,63)"/>
<path d="M0 0 C3.71599191 -0.20086443 4.77208445 -0.1519437 8 2 C8 2.99 8 3.98 8 5 C8.639375 5.103125 9.27875 5.20625 9.9375 5.3125 C10.618125 5.539375 11.29875 5.76625 12 6 C12.33 6.99 12.66 7.98 13 9 C13.99 9.33 14.98 9.66 16 10 C15.67 10.66 15.34 11.32 15 12 C15.66 12.33 16.32 12.66 17 13 C16.34 14.65 15.68 16.3 15 18 C12.87422093 17.9131724 10.74930419 17.8050049 8.625 17.6875 C6.84996094 17.60048828 6.84996094 17.60048828 5.0390625 17.51171875 C4.03617187 17.34285156 3.03328125 17.17398438 2 17 C-0.49118953 13.2632157 -0.2065226 11.25548181 -0.125 6.8125 C-0.10695313 5.54019531 -0.08890625 4.26789062 -0.0703125 2.95703125 C-0.04710938 1.98121094 -0.02390625 1.00539063 0 0 Z " fill="#E90C4C" transform="translate(68,15)"/>
<path d="M0 0 C1.23556641 0.01740234 1.23556641 0.01740234 2.49609375 0.03515625 C3.32238281 0.04417969 4.14867187 0.05320312 5 0.0625 C5.63808594 0.07410156 6.27617187 0.08570312 6.93359375 0.09765625 C6.93359375 1.74765625 6.93359375 3.39765625 6.93359375 5.09765625 C6.60359375 5.09765625 6.27359375 5.09765625 5.93359375 5.09765625 C5.93359375 8.39765625 5.93359375 11.69765625 5.93359375 15.09765625 C4.61359375 15.42765625 3.29359375 15.75765625 1.93359375 16.09765625 C0.82522952 17.98081784 0.82522952 17.98081784 -0.06640625 20.09765625 C-1.69140625 21.84765625 -1.69140625 21.84765625 -3.06640625 23.09765625 C-4.05640625 22.43765625 -5.04640625 21.77765625 -6.06640625 21.09765625 C-6.25390625 18.47265625 -6.25390625 18.47265625 -6.06640625 16.09765625 C-5.40640625 16.42765625 -4.74640625 16.75765625 -4.06640625 17.09765625 C-2.92675048 13.67868895 -3.00262117 11.06854018 -3.06640625 7.47265625 C-3.10392799 5.34798754 -3.11322684 3.22214038 -3.06640625 1.09765625 C-2.06640625 0.09765625 -2.06640625 0.09765625 0 0 Z " fill="#344260" transform="translate(368.06640625,93.90234375)"/>
<path d="M0 0 C1.65 0.66 3.3 1.32 5 2 C6.55345034 13.87684871 5.88301785 25.81322134 5.5625 37.75 C5.50917704 39.91144389 5.45643766 42.07290227 5.40429688 44.234375 C5.27626397 49.48976931 5.14100988 54.7449387 5 60 C1.7974056 61.7101452 -0.11794651 62.21038804 -3.765625 61.9765625 C-5.09980469 61.89921875 -5.09980469 61.89921875 -6.4609375 61.8203125 C-7.38132812 61.75585938 -8.30171875 61.69140625 -9.25 61.625 C-10.18585938 61.56828125 -11.12171875 61.5115625 -12.0859375 61.453125 C-14.39143448 61.31197212 -16.69578928 61.1605965 -19 61 C-19 60.67 -19 60.34 -19 60 C-11.74 59.67 -4.48 59.34 3 59 C2.91450724 51.75014475 2.82076219 44.50050967 2.71247292 37.25095654 C2.66252038 33.88471284 2.61619053 30.51850037 2.578125 27.15209961 C2.53257165 23.2822002 2.47456059 19.41265975 2.4140625 15.54296875 C2.40251129 14.33352097 2.39096008 13.12407318 2.37905884 11.87797546 C2.35918915 10.75703995 2.33931946 9.63610443 2.31884766 8.48120117 C2.30552399 7.49302902 2.29220032 6.50485687 2.2784729 5.48674011 C2.16446074 2.74981189 2.16446074 2.74981189 0 0 Z " fill="#42518E" transform="translate(75,57)"/>
<path d="M0 0 C7.92 0 15.84 0 24 0 C24 1.98 24 3.96 24 6 C23.67 6 23.34 6 23 6 C23 4.35 23 2.7 23 1 C22.18273437 1.17402344 21.36546875 1.34804687 20.5234375 1.52734375 C16.44450607 2.07451748 12.70949306 1.88327391 8.625 1.5625 C6.10875 1.376875 3.5925 1.19125 1 1 C1 11.56 1 22.12 1 33 C4.63 33 8.26 33 12 33 C11.01 31.35 10.02 29.7 9 28 C13.95 28 18.9 28 24 28 C24 29.98 24 31.96 24 34 C16.08 34 8.16 34 0 34 C0 22.78 0 11.56 0 0 Z " fill="#122042" transform="translate(201,95)"/>
<path d="M0 0 C-0.33 10.56 -0.66 21.12 -1 32 C-1.99 32.495 -1.99 32.495 -3 33 C-3 22.44 -3 11.88 -3 1 C-14.22 1 -25.44 1 -37 1 C-36.9605553 10.60281203 -36.9605553 10.60281203 -36.90991211 20.20556641 C-36.90741455 21.40874512 -36.90491699 22.61192383 -36.90234375 23.8515625 C-36.89710693 25.07697754 -36.89187012 26.30239258 -36.88647461 27.56494141 C-36.99353324 30.80432849 -37.38521382 33.82183197 -38 37 C-38.33 37 -38.66 37 -39 37 C-39 24.79 -39 12.58 -39 0 C-32.93625 -0.185625 -26.8725 -0.37125 -20.625 -0.5625 C-18.71154785 -0.62381104 -16.7980957 -0.68512207 -14.82666016 -0.74829102 C-13.3141397 -0.7922477 -11.8016078 -0.83581307 -10.2890625 -0.87890625 C-9.10606567 -0.9189679 -9.10606567 -0.9189679 -7.89916992 -0.95983887 C-2.2281436 -1.1140718 -2.2281436 -1.1140718 0 0 Z " fill="#7B87B3" transform="translate(130,93)"/>
<path d="M0 0 C9.57 0 19.14 0 29 0 C29 1.98 29 3.96 29 6 C26.36 6 23.72 6 21 6 C21.33 5.01 21.66 4.02 22 3 C20.88625 3.556875 20.88625 3.556875 19.75 4.125 C17 5 17 5 14.6875 4.125 C14.130625 3.75375 13.57375 3.3825 13 3 C13 2.34 13 1.68 13 1 C12.154375 1.825 11.30875 2.65 10.4375 3.5 C7.67546865 5.84014589 6.99951809 6.00003886 3.125 6.3125 C2.09375 6.209375 1.0625 6.10625 0 6 C0 4.02 0 2.04 0 0 Z " fill="#112245" transform="translate(260,95)"/>
<path d="M0 0 C0.66 0.66 1.32 1.32 2 2 C1.625 5.125 1.625 5.125 1 8 C2.32 8 3.64 8 5 8 C5 5.69 5 3.38 5 1 C6.33333333 3 7.66666667 5 9 7 C13.06630753 7.52522551 13.06630753 7.52522551 17 7 C19.5404226 4.66169042 19.5404226 4.66169042 21 2 C21.33 4.31 21.66 6.62 22 9 C16.06 9.495 16.06 9.495 10 10 C9.67 11.98 9.34 13.96 9 16 C4.07395127 15.56534864 1.48108776 13.40373025 -2 10 C-3.4375 7.375 -3.4375 7.375 -4 5 C-3.67 4.01 -3.34 3.02 -3 2 C-2.34 2 -1.68 2 -1 2 C-0.67 1.34 -0.34 0.68 0 0 Z " fill="#3A4766" transform="translate(310,114)"/>
<path d="M0 0 C5.42700017 0.38764287 8.28762789 2.02862518 12 6 C12.875 9.8125 12.875 9.8125 13 13 C9.7 13 6.4 13 3 13 C3 12.01 3 11.02 3 10 C-1.455 9.01 -1.455 9.01 -6 8 C-6 7.67 -6 7.34 -6 7 C-3.36 7 -0.72 7 2 7 C1.34 6.34 0.68 5.68 0 5 C-0.125 2.375 -0.125 2.375 0 0 Z " fill="#213257" transform="translate(183,94)"/>
<path d="M0 0 C0.06058594 1.12019531 0.12117187 2.24039063 0.18359375 3.39453125 C0.26801424 4.86719984 0.35266149 6.33985544 0.4375 7.8125 C0.47681641 8.55048828 0.51613281 9.28847656 0.55664062 10.04882812 C0.74381035 13.23071342 0.98720793 15.96162378 2 19 C0.02 19.66 -1.96 20.32 -4 21 C-7.55140441 17.44859559 -7.05396178 12.36951506 -7.0625 7.5625 C-7.041875 6.386875 -7.02125 5.21125 -7 4 C-6.34 4 -5.68 4 -5 4 C-5 3.01 -5 2.02 -5 1 C-1.125 0 -1.125 0 0 0 Z " fill="#12234A" transform="translate(171,101)"/>
<path d="M0 0 C2.64 0 5.28 0 8 0 C8.9464429 3.68061127 9.08850943 6.33865009 8 10 C6.66666667 11.33333333 5.33333333 12.66666667 4 14 C3.3574765 16.06874034 3.3574765 16.06874034 3 18 C-1.33273814 18.92844389 -4.66726186 18.92844389 -9 18 C-7.68 17.67 -6.36 17.34 -5 17 C-5.33 16.01 -5.66 15.02 -6 14 C-5.01 14 -4.02 14 -3 14 C-2.67 13.34 -2.34 12.68 -2 12 C-0.02111039 11.27306096 1.97954558 10.60183749 4 10 C3.67 9.01 3.34 8.02 3 7 C3.99 7 4.98 7 6 7 C6 6.34 6 5.68 6 5 C3.69 4.34 1.38 3.68 -1 3 C-0.67 2.01 -0.34 1.02 0 0 Z " fill="#132551" transform="translate(186,112)"/>
<path d="M0 0 C3.61328125 0.03255208 7.2265625 0.06510417 10.83984375 0.09765625 C11.16984375 6.03765625 11.49984375 11.97765625 11.83984375 18.09765625 C13.81984375 19.08765625 15.79984375 20.07765625 17.83984375 21.09765625 C17.50984375 21.75765625 17.17984375 22.41765625 16.83984375 23.09765625 C15.51984375 22.76765625 14.19984375 22.43765625 12.83984375 22.09765625 C12.83984375 21.43765625 12.83984375 20.77765625 12.83984375 20.09765625 C11.51984375 19.76765625 10.19984375 19.43765625 8.83984375 19.09765625 C8.83984375 13.48765625 8.83984375 7.87765625 8.83984375 2.09765625 C4.87984375 2.09765625 0.91984375 2.09765625 -3.16015625 2.09765625 C-3.16015625 4.40765625 -3.16015625 6.71765625 -3.16015625 9.09765625 C-6.34765625 9.41015625 -6.34765625 9.41015625 -10.16015625 9.09765625 C-12.91015625 6.66015625 -12.91015625 6.66015625 -15.16015625 4.09765625 C-16.15015625 3.76765625 -17.14015625 3.43765625 -18.16015625 3.09765625 C-17.83015625 2.43765625 -17.50015625 1.77765625 -17.16015625 1.09765625 C-16.556875 1.43539063 -15.95359375 1.773125 -15.33203125 2.12109375 C-14.5328125 2.56710938 -13.73359375 3.013125 -12.91015625 3.47265625 C-11.72679688 4.13394531 -11.72679688 4.13394531 -10.51953125 4.80859375 C-8.42101428 5.95513448 -6.30654855 7.04415177 -4.16015625 8.09765625 C-4.18078125 6.96328125 -4.20140625 5.82890625 -4.22265625 4.66015625 C-4.14314531 0.12803292 -4.14314531 0.12803292 0 0 Z " fill="#C53A64" transform="translate(94.16015625,16.90234375)"/>
<path d="M0 0 C9.24 0 18.48 0 28 0 C28 0.99 28 1.98 28 3 C19.42 3 10.84 3 2 3 C2.020625 5.31 2.04125 7.62 2.0625 10 C2.12018433 24.33666614 1.4959127 38.67392609 1 53 C0.67 53 0.34 53 0 53 C0 35.51 0 18.02 0 0 Z " fill="#687085" transform="translate(282,30)"/>
<path d="M0 0 C2.97 0.495 2.97 0.495 6 1 C6 5.29 6 9.58 6 14 C5.01 14.33 4.02 14.66 3 15 C3 15.66 3 16.32 3 17 C1.68 17.33 0.36 17.66 -1 18 C-1.97077965 14.08790292 -1.99008002 10.75601322 -1.625 6.75 C-1.53476562 5.69296875 -1.44453125 4.6359375 -1.3515625 3.546875 C-1 1 -1 1 0 0 Z " fill="#13244C" transform="translate(333,105)"/>
<path d="M0 0 C3.81283223 0.52956003 6.16522647 1.36072809 9 4 C10.96450034 7.04497553 11 8.1849907 11 12 C9.54257537 12.08096803 8.08387193 12.13917774 6.625 12.1875 C5.81289062 12.22230469 5.00078125 12.25710937 4.1640625 12.29296875 C3.44992188 12.19628906 2.73578125 12.09960938 2 12 C1.34 11.01 0.68 10.02 0 9 C-1.97747122 8.63702064 -1.97747122 8.63702064 -4.125 8.8125 C-5.40375 8.874375 -6.6825 8.93625 -8 9 C-8 8.34 -8 7.68 -8 7 C-5.36 7 -2.72 7 0 7 C0 6.34 0 5.68 0 5 C-0.66 4.67 -1.32 4.34 -2 4 C-1.34 2.68 -0.68 1.36 0 0 Z " fill="#303D5A" transform="translate(247,94)"/>
<path d="M0 0 C5.67830078 -0.02464705 11.35657069 -0.04283462 17.03491211 -0.05493164 C18.96818585 -0.05997256 20.90145576 -0.06680519 22.8347168 -0.07543945 C25.60726872 -0.08751565 28.37977041 -0.09323057 31.15234375 -0.09765625 C32.45702858 -0.10539818 32.45702858 -0.10539818 33.78807068 -0.11329651 C35.85905814 -0.11349185 37.92994324 -0.06208168 40 0 C41 1 41 1 41.1328125 3.25 C41.13023437 4.1575 41.12765625 5.065 41.125 6 C41.12886719 7.36125 41.12886719 7.36125 41.1328125 8.75 C41 11 41 11 40 12 C38.07332493 12.08748207 36.14348139 12.10697334 34.21484375 12.09765625 C33.04501953 12.09443359 31.87519531 12.09121094 30.66992188 12.08789062 C29.43822266 12.07951172 28.20652344 12.07113281 26.9375 12.0625 C25.08415039 12.05573242 25.08415039 12.05573242 23.19335938 12.04882812 C20.12885883 12.03699608 17.06445279 12.02051173 14 12 C14 11.67 14 11.34 14 11 C21.92 11 29.84 11 38 11 C37.505 6.545 37.505 6.545 37 2 C18.685 1.505 18.685 1.505 0 1 C0 0.67 0 0.34 0 0 Z " fill="#ADB2BE" transform="translate(333,30)"/>
<path d="M0 0 C6.6726094 5.22204214 6.6726094 5.22204214 8 9 C8.13958857 11.62426505 8.18931369 14.13292747 8.125 16.75 C8.11597656 17.44738281 8.10695313 18.14476563 8.09765625 18.86328125 C8.07419888 20.57566958 8.03833104 22.28788004 8 24 C7.34 24.33 6.68 24.66 6 25 C6.33 20.05 6.66 15.1 7 10 C6.01 10.33 5.02 10.66 4 11 C3.01 10.67 2.02 10.34 1 10 C0.67 13.3 0.34 16.6 0 20 C-0.33 20 -0.66 20 -1 20 C-1.66 16.04 -2.32 12.08 -3 8 C-3.99 7.67 -4.98 7.34 -6 7 C-4.68 6.67 -3.36 6.34 -2 6 C-2 5.01 -2 4.02 -2 3 C-1.34 3 -0.68 3 0 3 C0 2.01 0 1.02 0 0 Z " fill="#3E4968" transform="translate(332,96)"/>
<path d="M0 0 C1.32406921 0.51273751 2.63420811 1.06153813 3.9375 1.625 C5.03384766 2.07746094 5.03384766 2.07746094 6.15234375 2.5390625 C8 4 8 4 8.74609375 6.6640625 C9.02833279 10.37224924 9.13235037 14.03071387 9.125 17.75 C9.12757812 19.06484375 9.13015625 20.3796875 9.1328125 21.734375 C9 25 9 25 8 27 C7.34 27 6.68 27 6 27 C4.99073521 22.84373632 4.89760421 18.95634906 4.9375 14.6875 C4.94652344 13.43324219 4.95554687 12.17898437 4.96484375 10.88671875 C4.97644531 9.93410156 4.98804687 8.98148438 5 8 C4.34 7.67 3.68 7.34 3 7 C3 6.01 3 5.02 3 4 C2.34 4 1.68 4 1 4 C0.67 2.68 0.34 1.36 0 0 Z " fill="#6976AE" transform="translate(84,47)"/>
<path d="M0 0 C1.98 0.66 3.96 1.32 6 2 C6 2.66 6 3.32 6 4 C5.01 4.495 5.01 4.495 4 5 C4 5.66 4 6.32 4 7 C1 9 1 9 -2 9 C-2.33 9.99 -2.66 10.98 -3 12 C-3.99 11.34 -4.98 10.68 -6 10 C-5.01 10 -4.02 10 -3 10 C-3 9.34 -3 8.68 -3 8 C-4.98 8 -6.96 8 -9 8 C-9 7.67 -9 7.34 -9 7 C-7.88625 6.87625 -6.7725 6.7525 -5.625 6.625 C-1.96896323 6.3534187 -1.96896323 6.3534187 0 4 C-1.65 3.67 -3.3 3.34 -5 3 C-5 2.67 -5 2.34 -5 2 C-3.35 2 -1.7 2 0 2 C0 1.34 0 0.68 0 0 Z M-7 11 C-6.34 11.33 -5.68 11.66 -5 12 C-5 12.66 -5 13.32 -5 14 C-4.34 14.66 -3.68 15.32 -3 16 C-10.42857143 16.28571429 -10.42857143 16.28571429 -14 14 C-11.69631264 12.93347808 -9.35981813 11.93578995 -7 11 Z " fill="#384763" transform="translate(186,115)"/>
<path d="M0 0 C3.0020882 1.00069607 4.73102436 1.68464925 6.8125 4.125 C10.12840007 6.96720006 12.72665713 6.28488952 17 6 C17.33 5.34 17.66 4.68 18 4 C19.32 4.99 20.64 5.98 22 7 C12.96405342 9.79292894 4.64648146 9.033738 -4 5 C-4.33 4.34 -4.66 3.68 -5 3 C-3.02 2.67 -1.04 2.34 1 2 C0.67 1.34 0.34 0.68 0 0 Z " fill="#313F62" transform="translate(236,78)"/>
<path d="M0 0 C2.434841 0.74883692 3.49132573 1.73098784 5.12109375 3.65234375 C4.79109375 4.64234375 4.46109375 5.63234375 4.12109375 6.65234375 C2.05859375 7.33984375 2.05859375 7.33984375 0.12109375 7.65234375 C-0.53890625 6.66234375 -1.19890625 5.67234375 -1.87890625 4.65234375 C-2.53890625 5.97234375 -3.19890625 7.29234375 -3.87890625 8.65234375 C-4.53890625 8.65234375 -5.19890625 8.65234375 -5.87890625 8.65234375 C-6.20890625 7.66234375 -6.53890625 6.67234375 -6.87890625 5.65234375 C-7.86890625 6.14734375 -7.86890625 6.14734375 -8.87890625 6.65234375 C-8.87890625 5.99234375 -8.87890625 5.33234375 -8.87890625 4.65234375 C-9.53890625 4.32234375 -10.19890625 3.99234375 -10.87890625 3.65234375 C-7.69801751 -0.91154009 -5.07615779 -0.62488958 0 0 Z " fill="#10234B" transform="translate(264.87890625,38.34765625)"/>
<path d="M0 0 C1.17755859 -0.02126953 1.17755859 -0.02126953 2.37890625 -0.04296875 C4.4375 0.1875 4.4375 0.1875 6.4375 2.1875 C5.4475 2.1875 4.4575 2.1875 3.4375 2.1875 C3.7675 3.8375 4.0975 5.4875 4.4375 7.1875 C1.7975 7.1875 -0.8425 7.1875 -3.5625 7.1875 C-3.8925 7.8475 -4.2225 8.5075 -4.5625 9.1875 C-5.625 7.375 -5.625 7.375 -6.5625 5.1875 C-6.2325 4.1975 -5.9025 3.2075 -5.5625 2.1875 C-6.2225 1.8575 -6.8825 1.5275 -7.5625 1.1875 C-4.76092552 0.25364184 -2.90802197 0.02395405 0 0 Z " fill="#1B2B4D" transform="translate(242.5625,93.8125)"/>
<path d="M0 0 C3 2 3 2 3.6875 3.6875 C4.10859258 6.80358511 4.06037884 9.86030043 4 13 C2.68 13.33 1.36 13.66 0 14 C-0.68707555 11.50935112 -1 9.62113708 -1 7 C-1.99 7.66 -2.98 8.32 -4 9 C-4.6875 6.6875 -4.6875 6.6875 -5 4 C-3.48656345 1.9820846 -2.25060133 1.12530066 0 0 Z " fill="#132348" transform="translate(311,109)"/>
<path d="M0 0 C0.33 0.66 0.66 1.32 1 2 C0.34 2 -0.32 2 -1 2 C-1 3.32 -1 4.64 -1 6 C-0.34 6 0.32 6 1 6 C1 6.66 1 7.32 1 8 C0.01 8.495 0.01 8.495 -1 9 C0.09068668 12.77545388 0.9083091 15.47043472 4 18 C3.34 18.33 2.68 18.66 2 19 C-1.36949443 17.31525278 -2.87944386 16.1808342 -5 13 C-5.46193077 8.01114768 -5.06738634 5.01119752 -2 1 C-1.34 0.67 -0.68 0.34 0 0 Z " fill="#47546E" transform="translate(234,96)"/>
<path d="M0 0 C0.33 0 0.66 0 1 0 C1 6.6 1 13.2 1 20 C-10.22 19.67 -21.44 19.34 -33 19 C-32.505 17.515 -32.505 17.515 -32 16 C-31.47438477 16.15847412 -30.94876953 16.31694824 -30.40722656 16.48022461 C-27.41021426 17.12734826 -24.54945792 17.21888088 -21.484375 17.31640625 C-20.23398438 17.35830078 -18.98359375 17.40019531 -17.6953125 17.44335938 C-16.39335938 17.48267578 -15.09140625 17.52199219 -13.75 17.5625 C-12.43257812 17.60568359 -11.11515625 17.64886719 -9.7578125 17.69335938 C-6.50533146 17.79941854 -3.25267947 17.90021153 0 18 C0 12.06 0 6.12 0 0 Z " fill="#3A498B" transform="translate(90,110)"/>
<path d="M0 0 C0.33 0 0.66 0 1 0 C1 7.92 1 15.84 1 24 C4.3 24.33 7.6 24.66 11 25 C11.33 25.66 11.66 26.32 12 27 C7.38 27 2.76 27 -2 27 C-1.67 25.35 -1.34 23.7 -1 22 C-0.8599637 20.23547604 -0.7559922 18.46780956 -0.68359375 16.69921875 C-0.64169922 15.72275391 -0.59980469 14.74628906 -0.55664062 13.74023438 C-0.51732422 12.73283203 -0.47800781 11.72542969 -0.4375 10.6875 C-0.37272461 9.14739258 -0.37272461 9.14739258 -0.30664062 7.57617188 C-0.20093175 5.05090431 -0.09883532 2.52554438 0 0 Z " fill="#485693" transform="translate(129,103)"/>
<path d="M0 0 C1.58294782 -0.05437607 3.16644256 -0.09296271 4.75 -0.125 C5.63171875 -0.14820312 6.5134375 -0.17140625 7.421875 -0.1953125 C10.1135858 0.00860498 11.69904974 0.63448279 14 2 C13.01 2.66 12.02 3.32 11 4 C11.825 4.45375 12.65 4.9075 13.5 5.375 C14.325 5.91125 15.15 6.4475 16 7 C16 7.66 16 8.32 16 9 C16.66 9 17.32 9 18 9 C17.67 9.66 17.34 10.32 17 11 C14.16317601 9.36012756 11.33115748 7.71213309 8.5 6.0625 C7.68917969 5.59392578 6.87835938 5.12535156 6.04296875 4.64257812 C5.27597656 4.19462891 4.50898437 3.74667969 3.71875 3.28515625 C3.00654297 2.87144775 2.29433594 2.45773926 1.56054688 2.03149414 C1.04556641 1.69110107 0.53058594 1.35070801 0 1 C0 0.67 0 0.34 0 0 Z " fill="#DD265B" transform="translate(72,32)"/>
<path d="M0 0 C0.66 0 1.32 0 2 0 C2 1.32 2 2.64 2 4 C1.34 4 0.68 4 0 4 C0 13.9 0 23.8 0 34 C-0.33 34 -0.66 34 -1 34 C-1 24.76 -1 15.52 -1 6 C-4.3 6 -7.6 6 -11 6 C-11 5.67 -11 5.34 -11 5 C-9.39125 4.87625 -9.39125 4.87625 -7.75 4.75 C-3.66499825 3.93299965 -2.65108323 3.0438363 0 0 Z " fill="#78809C" transform="translate(271,96)"/>
<path d="M0 0 C7 1 7 1 8.9375 2.5625 C9.288125 3.036875 9.63875 3.51125 10 4 C9.67 4.99 9.34 5.98 9 7 C8.34 6.34 7.68 5.68 7 5 C4.91666667 5.16666667 4.91666667 5.16666667 3 6 C1.64908472 8.70183055 1.66141942 11.11808206 1.4375 14.125 C1.35371094 15.22070312 1.26992188 16.31640625 1.18359375 17.4453125 C1.12300781 18.28835937 1.06242187 19.13140625 1 20 C0.67 20 0.34 20 0 20 C0 13.4 0 6.8 0 0 Z " fill="#112244" transform="translate(345,95)"/>
<path d="M0 0 C1.50433594 0.01353516 1.50433594 0.01353516 3.0390625 0.02734375 C3.80992187 0.03894531 4.58078125 0.05054687 5.375 0.0625 C5.375 1.3825 5.375 2.7025 5.375 4.0625 C1.3936217 5.3896261 -2.47545227 5.13165913 -6.625 5.0625 C-6.955 3.7425 -7.285 2.4225 -7.625 1.0625 C-4.98041621 -0.25979189 -2.94738699 -0.03427194 0 0 Z " fill="#13254F" transform="translate(217.625,95.9375)"/>
<path d="M0 0 C2 1 2 1 3 3 C3.66 3 4.32 3 5 3 C5 4.98 5 6.96 5 9 C2.69 9 0.38 9 -2 9 C-3.4606285 6.35261084 -4 5.10551666 -4 2 C-2.125 0.9375 -2.125 0.9375 0 0 Z " fill="#102348" transform="translate(369,120)"/>
<path d="M0 0 C3.63 0 7.26 0 11 0 C10.67 1.65 10.34 3.3 10 5 C5.94568308 6.15837626 3.78187881 5.83691257 0 4 C0 2.68 0 1.36 0 0 Z " fill="#122058" transform="translate(211,108)"/>
<path d="M0 0 C0.66 0 1.32 0 2 0 C2.33 2.31 2.66 4.62 3 7 C-0.3 7 -3.6 7 -7 7 C-7 6.01 -7 5.02 -7 4 C-11.455 3.01 -11.455 3.01 -16 2 C-16 1.67 -16 1.34 -16 1 C-10.91241317 0.70073019 -8.20032028 1.11978038 -4 4 C-3.34 4 -2.68 4 -2 4 C-1.34 2.68 -0.68 1.36 0 0 Z " fill="#555F77" transform="translate(193,100)"/>
<path d="M0 0 C0.33 0.66 0.66 1.32 1 2 C3.01808442 2.22784824 5.03620297 2.45541144 7.0546875 2.6796875 C9 3 9 3 11 4.0625 C12.6663199 7.29099481 12.17649121 10.41134531 12 14 C11.34 13.67 10.68 13.34 10 13 C10.33 11.02 10.66 9.04 11 7 C10.54625 7.495 10.0925 7.99 9.625 8.5 C8 10 8 10 6 10 C6 9.34 6 8.68 6 8 C5.34 8 4.68 8 4 8 C4 6.68 4 5.36 4 4 C2.35 3.67 0.7 3.34 -1 3 C-0.67 2.01 -0.34 1.02 0 0 Z " fill="#13254F" transform="translate(244,110)"/>
<path d="M0 0 C3.82097239 0.53069061 6.06171403 1.49701566 9 4 C8.67 5.32 8.34 6.64 8 8 C7.67 6.68 7.34 5.36 7 4 C6.34 4 5.68 4 5 4 C4.67 4.66 4.34 5.32 4 6 C3.01 6.495 3.01 6.495 2 7 C1.34 7.66 0.68 8.32 0 9 C-2.68839385 9.26991906 -5.29141936 9.08737357 -8 9 C-8 8.34 -8 7.68 -8 7 C-5.36 7 -2.72 7 0 7 C0 6.34 0 5.68 0 5 C-0.66 4.67 -1.32 4.34 -2 4 C-1.34 2.68 -0.68 1.36 0 0 Z " fill="#44526F" transform="translate(247,94)"/>
<path d="M0 0 C2.0880823 3.39313374 2.50476722 6.04599009 2 10 C0 11.875 0 11.875 -2 13 C-2.99 12.34 -3.98 11.68 -5 11 C-4.34 11 -3.68 11 -3 11 C-3.2475 9.9275 -3.495 8.855 -3.75 7.75 C-4 4 -4 4 -2.0625 1.5625 C-1.381875 1.046875 -0.70125 0.53125 0 0 Z M-2 6 C-1 8 -1 8 -1 8 Z " fill="#102551" transform="translate(260,72)"/>
<path d="M0 0 C0.99 1.32 1.98 2.64 3 4 C2.34 5.98 1.68 7.96 1 10 C11.89 10 22.78 10 34 10 C34 10.33 34 10.66 34 11 C22.78 11 11.56 11 0 11 C0 7.37 0 3.74 0 0 Z " fill="#5A6692" transform="translate(56,119)"/>
<path d="M0 0 C0 3.3 0 6.6 0 10 C-6.93 10 -13.86 10 -21 10 C-21 9.67 -21 9.34 -21 9 C-13.08 8.505 -13.08 8.505 -5 8 C-3.54685336 3.39467611 -3.54685336 3.39467611 -5 1 C-1.125 0 -1.125 0 0 0 Z " fill="#546279" transform="translate(372,53)"/>
<path d="M0 0 C-0.66 0.66 -1.32 1.32 -2 2 C-2.46486718 5.12196336 -2.46486718 5.12196336 -2.625 8.625 C-2.69976562 9.81351563 -2.77453125 11.00203125 -2.8515625 12.2265625 C-2.90054688 13.14179688 -2.94953125 14.05703125 -3 15 C-2.34 15.33 -1.68 15.66 -1 16 C-2.65 16.33 -4.3 16.66 -6 17 C-5.96519531 16.01257813 -5.93039063 15.02515625 -5.89453125 14.0078125 C-5.86746094 12.72648437 -5.84039062 11.44515625 -5.8125 10.125 C-5.77769531 8.84882813 -5.74289063 7.57265625 -5.70703125 6.2578125 C-5.80371094 5.18273437 -5.90039062 4.10765625 -6 3 C-6.99 2.34 -7.98 1.68 -9 1 C-5.64919071 -1.10976881 -3.77897651 -1.0497157 0 0 Z " fill="#8D4F87" transform="translate(71,14)"/>
<path d="M0 0 C0.33 1.32 0.66 2.64 1 4 C3.31 4.33 5.62 4.66 8 5 C8 5.66 8 6.32 8 7 C7.34 7 6.68 7 6 7 C6 7.66 6 8.32 6 9 C7.32 9.66 8.64 10.32 10 11 C9.67 12.32 9.34 13.64 9 15 C6.69 14.34 4.38 13.68 2 13 C2.66 12.67 3.32 12.34 4 12 C3.72965366 9.56282742 3.72965366 9.56282742 3 7 C2.01 6.34 1.02 5.68 0 5 C-0.1875 2.375 -0.1875 2.375 0 0 Z " fill="#314362" transform="translate(238,103)"/>
<path d="M0 0 C2.375 0.625 2.375 0.625 5 2 C7.82816495 7.25230634 7.18582536 13.19811928 7 19 C5.203125 19.62109375 5.203125 19.62109375 3 20 C-0.25 18.0625 -0.25 18.0625 -3 16 C-0.50907189 14.75453595 0.41080733 15.2232422 3 16 C3 16.66 3 17.32 3 18 C3.66 18 4.32 18 5 18 C4.93976506 15.91587093 4.85091679 13.83255565 4.75 11.75 C4.70359375 10.58984375 4.6571875 9.4296875 4.609375 8.234375 C3.90857698 4.51475474 2.84194417 3.38723311 0 1 C0 0.67 0 0.34 0 0 Z " fill="#C86281" transform="translate(114,40)"/>
<path d="M0 0 C0.66 0 1.32 0 2 0 C2.20625 0.78375 2.4125 1.5675 2.625 2.375 C3.80676612 5.30916286 3.80676612 5.30916286 7.125 6.3125 C8.07375 6.539375 9.0225 6.76625 10 7 C9.67 7.99 9.34 8.98 9 10 C8.34 10 7.68 10 7 10 C6.67 10.66 6.34 11.32 6 12 C3.63189682 11.05275873 2.24792047 10.34708866 0.75 8.25 C-0.19251213 5.42246362 -0.1345485 2.96006696 0 0 Z " fill="#3D4C6D" transform="translate(234,66)"/>
<path d="M0 0 C2.31 0.33 4.62 0.66 7 1 C6.979375 2.134375 6.95875 3.26875 6.9375 4.4375 C6.58422523 7.81575674 6.58422523 7.81575674 8 9 C10.32817964 9.36760731 12.6618385 9.70241581 15 10 C15 8.02 15 6.04 15 4 C15.33 4 15.66 4 16 4 C16 6.31 16 8.62 16 11 C12.80703413 11.65162569 10.16779048 11.84708321 7 11 C4.48417263 8.4431537 0 3.82255893 0 0 Z " fill="#4E5872" transform="translate(359,119)"/>
<path d="M0 0 C0 1.65 0 3.3 0 5 C-1.98 5 -3.96 5 -6 5 C-6 5.66 -6 6.32 -6 7 C-6.639375 7.28875 -7.27875 7.5775 -7.9375 7.875 C-10.15206079 8.82823451 -10.15206079 8.82823451 -11 11 C-11.66 11 -12.32 11 -13 11 C-12.80859375 8.70703125 -12.80859375 8.70703125 -12 6 C-9.78515625 4.19921875 -9.78515625 4.19921875 -7.0625 2.6875 C-6.16660156 2.17574219 -5.27070312 1.66398437 -4.34765625 1.13671875 C-2 0 -2 0 0 0 Z " fill="#D03F69" transform="translate(69,61)"/>
<path d="M0 0 C4.7734375 -0.1875 4.7734375 -0.1875 6.8125 1.5 C7.204375 1.995 7.59625 2.49 8 3 C5.69 3 3.38 3 1 3 C1 5.31 1 7.62 1 10 C1.99 10 2.98 10 4 10 C4.33 11.98 4.66 13.96 5 16 C3.68 16 2.36 16 1 16 C-0.50156874 12.99686252 -0.09281204 10.20932478 -0.0625 6.875 C-0.05347656 5.59367187 -0.04445313 4.31234375 -0.03515625 2.9921875 C-0.02355469 2.00476563 -0.01195313 1.01734375 0 0 Z " fill="#D32B62" transform="translate(68,15)"/>
<path d="M0 0 C-0.75 2.4375 -0.75 2.4375 -2 5 C-5.1269791 6.50957612 -7.71940773 5.82014807 -11 5 C-10.01 4.34 -9.02 3.68 -8 3 C-8.33 1.68 -8.66 0.36 -9 -1 C-5.79937313 -2.60031344 -3.27728194 -1.03173691 0 0 Z " fill="#152547" transform="translate(252,125)"/>
<path d="M0 0 C7.625 0.875 7.625 0.875 11 2 C11 2.66 11 3.32 11 4 C11.598125 4.268125 12.19625 4.53625 12.8125 4.8125 C14.97224808 5.98493467 16.35790256 7.19369282 18 9 C17.01 9.495 17.01 9.495 16 10 C13.77098325 8.79793371 11.68406099 7.55781972 9.5625 6.1875 C8.68368164 5.63352539 8.68368164 5.63352539 7.78710938 5.06835938 C5.16816643 3.41256912 2.57808277 1.71872184 0 0 Z " fill="#D2416E" transform="translate(90,43)"/>
<path d="M0 0 C0.66 0.33 1.32 0.66 2 1 C2 2.32 2 3.64 2 5 C1.34 5 0.68 5 0 5 C-0.268125 5.598125 -0.53625 6.19625 -0.8125 6.8125 C-1.98493467 8.97224808 -3.19369282 10.35790256 -5 12 C-5.99 11.34 -6.98 10.68 -8 10 C-8.1875 7.375 -8.1875 7.375 -8 5 C-5.525 5.495 -5.525 5.495 -3 6 C-2.01 4.02 -1.02 2.04 0 0 Z " fill="#182A50" transform="translate(370,105)"/>
<path d="M0 0 C0.66 0.33 1.32 0.66 2 1 C2.99 1 3.98 1 5 1 C5 2.65 5 4.3 5 6 C0.66726186 6.92844389 -2.66726186 6.92844389 -7 6 C-5.68 5.67 -4.36 5.34 -3 5 C-3.33 4.01 -3.66 3.02 -4 2 C-3.01 2 -2.02 2 -1 2 C-0.67 1.34 -0.34 0.68 0 0 Z " fill="#202E4F" transform="translate(184,124)"/>
<path d="M0 0 C0.66 1.32 1.32 2.64 2 4 C2.66 4 3.32 4 4 4 C3 6 3 6 1.4375 7.3125 C-0.26545111 8.97323686 -0.26545111 8.97323686 -0.1875 11.6875 C-0.125625 12.450625 -0.06375 13.21375 0 14 C-2.0625 12.25 -2.0625 12.25 -4 10 C-3.6875 7.875 -3.6875 7.875 -3 6 C-3.33 5.34 -3.66 4.68 -4 4 C-3.01 3.67 -2.02 3.34 -1 3 C-0.67 2.01 -0.34 1.02 0 0 Z " fill="#3C4A67" transform="translate(358,103)"/>
<path d="M0 0 C3.96 0 7.92 0 12 0 C12 2.31 12 4.62 12 7 C11.67 7 11.34 7 11 7 C11 5.02 11 3.04 11 1 C6.545 1.495 6.545 1.495 2 2 C1.67 4.31 1.34 6.62 1 9 C-0.98 9.33 -2.96 9.66 -5 10 C-5 9.34 -5 8.68 -5 8 C-5.66 7.67 -6.32 7.34 -7 7 C-4.69 7 -2.38 7 0 7 C0 4.69 0 2.38 0 0 Z " fill="#DA154F" transform="translate(91,19)"/>
<path d="M0 0 C4.62 0 9.24 0 14 0 C14.33 1.32 14.66 2.64 15 4 C13.02 4 11.04 4 9 4 C9 3.34 9 2.68 9 2 C8.2575 2.37125 7.515 2.7425 6.75 3.125 C4 4 4 4 1.6875 3.125 C1.130625 2.75375 0.57375 2.3825 0 2 C0 1.34 0 0.68 0 0 Z " fill="#11264C" transform="translate(273,96)"/>
<path d="M0 0 C0.928125 0.0825 1.85625 0.165 2.8125 0.25 C4.57312164 3.57561865 4.92034228 4.84173995 3.9375 8.5625 C3.56625 9.449375 3.195 10.33625 2.8125 11.25 C2.1525 10.92 1.4925 10.59 0.8125 10.25 C0.40520772 7.92843403 0.06811323 5.5931213 -0.1875 3.25 C-2.1675 3.58 -4.1475 3.91 -6.1875 4.25 C-4.36434338 1.00883268 -3.82500054 0.30000004 0 0 Z " fill="#12244E" transform="translate(233.1875,35.75)"/>
<path d="M0 0 C1.9453125 -0.29296875 1.9453125 -0.29296875 4.125 -0.1875 C5.40375 -0.125625 6.6825 -0.06375 8 0 C6.36587557 1.70840281 5.13093906 2.93453047 3 4 C2.67 4.66 2.34 5.32 2 6 C2.66 6.33 3.32 6.66 4 7 C2.35 7.33 0.7 7.66 -1 8 C-1.625 5.6875 -1.625 5.6875 -2 3 C-1.34 2.01 -0.68 1.02 0 0 Z " fill="#102344" transform="translate(320,123)"/>
<path d="M0 0 C0.66 0.33 1.32 0.66 2 1 C1.85892253 2.45880109 1.71197585 3.91703551 1.5625 5.375 C1.48128906 6.18710938 1.40007812 6.99921875 1.31640625 7.8359375 C1 10 1 10 0 12 C-0.66 12 -1.32 12 -2 12 C-2.33 11.01 -2.66 10.02 -3 9 C-3.66 8.67 -4.32 8.34 -5 8 C-4 5 -4 5 -1 3 C-0.67 2.01 -0.34 1.02 0 0 Z " fill="#12234B" transform="translate(315,96)"/>
<path d="M0 0 C1.65 0.33 3.3 0.66 5 1 C5 3 5 5 5 7 C1.71023192 8.09658936 0.28696233 7.79953138 -3 7 C-2.01 4.69 -1.02 2.38 0 0 Z " fill="#0F244D" transform="translate(233,73)"/>
<path d="M0 0 C0.66 0.33 1.32 0.66 2 1 C2 3.31 2 5.62 2 8 C-2.62 8 -7.24 8 -12 8 C-12 7.67 -12 7.34 -12 7 C-10.95199219 6.87044922 -10.95199219 6.87044922 -9.8828125 6.73828125 C-7.16031137 6.31795176 -4.61803791 5.86256547 -2 5 C-0.24431996 2.54251602 -0.24431996 2.54251602 0 0 Z " fill="#434F68" transform="translate(222,108)"/>
<path d="M0 0 C0.99 0.495 0.99 0.495 2 1 C2 1.33 2 1.66 2 2 C2.66 2 3.32 2 4 2 C4 2.66 4 3.32 4 4 C4.66 4.33 5.32 4.66 6 5 C6 6.98 6 8.96 6 11 C2.83884224 9.63016497 2.0072908 9.0109362 0 6 C-0.125 2.8125 -0.125 2.8125 0 0 Z " fill="#3E4A66" transform="translate(229,118)"/>
<path d="M0 0 C0.66 0.99 1.32 1.98 2 3 C1.34 4.32 0.68 5.64 0 7 C-0.66 7 -1.32 7 -2 7 C-2 6.34 -2 5.68 -2 5 C-2.66 5 -3.32 5 -4 5 C-4 4.34 -4 3.68 -4 3 C-4.66 3 -5.32 3 -6 3 C-6.33 2.01 -6.66 1.02 -7 0 C-3.86559131 -1.0448029 -2.97903963 -1.15317663 0 0 Z " fill="#364463" transform="translate(231,74)"/>
<path d="M0 0 C2.97 0.495 2.97 0.495 6 1 C5.01 2.175625 5.01 2.175625 4 3.375 C1.10748572 7.61192232 1.64901808 12.06675416 2 17 C1.34 16.67 0.68 16.34 0 16 C0 10.72 0 5.44 0 0 Z " fill="#424E69" transform="translate(171,101)"/>
<path d="M0 0 C8.93617021 1.93617021 8.93617021 1.93617021 12 5 C12 5.66 12 6.32 12 7 C10.35 7 8.7 7 7 7 C7 6.34 7 5.68 7 5 C6.01 5 5.02 5 4 5 C3.67 4.34 3.34 3.68 3 3 C2.01 3 1.02 3 0 3 C0 2.01 0 1.02 0 0 Z " fill="#3D4963" transform="translate(311,31)"/>
<path d="M0 0 C2.79192205 -0.05380578 5.5828141 -0.09357669 8.375 -0.125 C9.1690625 -0.14175781 9.963125 -0.15851562 10.78125 -0.17578125 C12.85492015 -0.19335473 14.92883241 -0.10335168 17 0 C17.66 0.66 18.32 1.32 19 2 C15.29950318 2.89484741 12.16170624 3.03696187 8.375 2.6875 C7.43398437 2.60886719 6.49296875 2.53023437 5.5234375 2.44921875 C3 2 3 2 0 0 Z " fill="#596379" transform="translate(239,30)"/>
<path d="M0 0 C4.92101242 2.0085765 9.42543762 4.29260594 14 7 C14 4.69 14 2.38 14 0 C14.33 0 14.66 0 15 0 C15 2.64 15 5.28 15 8 C11.8125 8.3125 11.8125 8.3125 8 8 C5.25 5.5625 5.25 5.5625 3 3 C2.01 2.67 1.02 2.34 0 2 C0 1.34 0 0.68 0 0 Z " fill="#DB5B80" transform="translate(76,18)"/>
<path d="M0 0 C2.31 0 4.62 0 7 0 C6.67 1.65 6.34 3.3 6 5 C5.01 4.34 4.02 3.68 3 3 C3.99 3 4.98 3 6 3 C6 2.34 6 1.68 6 1 C4.02 1 2.04 1 0 1 C0 0.67 0 0.34 0 0 Z M2 4 C2.66 4.33 3.32 4.66 4 5 C4 5.66 4 6.32 4 7 C4.66 7.66 5.32 8.32 6 9 C-1.42857143 9.28571429 -1.42857143 9.28571429 -5 7 C-2.69631264 5.93347808 -0.35981813 4.93578995 2 4 Z " fill="#576582" transform="translate(177,122)"/>
<path d="M0 0 C2.80063432 1.14194429 5.47332213 2.32801232 8 4 C9 6.75 9 6.75 9 9 C8.01 9.33 7.02 9.66 6 10 C4.5 8.6875 4.5 8.6875 3 7 C3 6.01 3 5.02 3 4 C2.34 4 1.68 4 1 4 C0.67 2.68 0.34 1.36 0 0 Z " fill="#606DA0" transform="translate(84,47)"/>
<path d="M0 0 C2.91517292 1.07401108 4.77810176 1.77810176 7 4 C4.94766315 6.2477975 3.99332739 7.0022242 1 8 C1 7.01 1 6.02 1 5 C0.01 4.67 -0.98 4.34 -2 4 C-1.34 2.68 -0.68 1.36 0 0 Z " fill="#5060A2" transform="translate(68,38)"/>
<path d="M0 0 C1.65 0 3.3 0 5 0 C4.67 0.99 4.34 1.98 4 3 C5.65 3.33 7.3 3.66 9 4 C5.91111478 6.05925681 5.29064073 6.2390374 1.8125 6.125 C-0.0746875 6.063125 -0.0746875 6.063125 -2 6 C-1.67 5.38125 -1.34 4.7625 -1 4.125 C0.14193235 2.08981656 0.14193235 2.08981656 0 0 Z " fill="#313E5D" transform="translate(322,125)"/>
<path d="M0 0 C0.33 0 0.66 0 1 0 C1.13277344 0.83144531 1.26554688 1.66289063 1.40234375 2.51953125 C1.57894531 3.60621094 1.75554687 4.69289063 1.9375 5.8125 C2.19853516 7.43091797 2.19853516 7.43091797 2.46484375 9.08203125 C2.93871921 12.04933356 2.93871921 12.04933356 4 15 C4.66 15 5.32 15 6 15 C5.34 16.32 4.68 17.64 4 19 C0.05001202 12.45783241 -0.50146657 7.57771707 0 0 Z " fill="#4A526A" transform="translate(163,107)"/>
<path d="M0 0 C0.66 0 1.32 0 2 0 C2 0.66 2 1.32 2 2 C2.66 1.67 3.32 1.34 4 1 C5.70702735 0.93003986 7.41668003 0.91559846 9.125 0.9375 C10.03507812 0.94652344 10.94515625 0.95554688 11.8828125 0.96484375 C12.58148438 0.97644531 13.28015625 0.98804688 14 1 C14 1.33 14 1.66 14 2 C13.37351562 2.03738281 12.74703125 2.07476562 12.1015625 2.11328125 C11.28429687 2.17902344 10.46703125 2.24476562 9.625 2.3125 C8.40683594 2.39951172 8.40683594 2.39951172 7.1640625 2.48828125 C4.62078662 2.82990528 4.62078662 2.82990528 3 6 C0.875 6.6875 0.875 6.6875 -1 7 C-1.625 5.1875 -1.625 5.1875 -2 3 C-1.34 2.01 -0.68 1.02 0 0 Z " fill="#4E5E85" transform="translate(292,40)"/>
<path d="M0 0 C0.66 0 1.32 0 2 0 C2 3.96 2 7.92 2 12 C1.01 11.67 0.02 11.34 -1 11 C-1.02688151 9.35425434 -1.04634123 7.70838587 -1.0625 6.0625 C-1.07410156 5.14597656 -1.08570313 4.22945312 -1.09765625 3.28515625 C-1 1 -1 1 0 0 Z " fill="#48526C" transform="translate(273,52)"/>
<path d="M0 0 C0.99 0 1.98 0 3 0 C3 0.66 3 1.32 3 2 C2.34 2 1.68 2 1 2 C0.01 6.95 -0.98 11.9 -2 17 C-2.33 17 -2.66 17 -3 17 C-3.33 13.04 -3.66 9.08 -4 5 C-3.34 5 -2.68 5 -2 5 C-1.67 4.01 -1.34 3.02 -1 2 C-0.67 1.34 -0.34 0.68 0 0 Z " fill="#4C566F" transform="translate(236,44)"/>
<path d="M0 0 C-0.33 0.99 -0.66 1.98 -1 3 C-7.93 2.67 -14.86 2.34 -22 2 C-22 1.67 -22 1.34 -22 1 C-14.65623924 0.42240084 -7.36901413 -0.14738028 0 0 Z " fill="#554889" transform="translate(78,116)"/>
<path d="M0 0 C2.475 0.99 2.475 0.99 5 2 C2.03821227 3.67110042 -0.37071192 4.32682752 -3.75 4.625 C-4.54921875 4.69976562 -5.3484375 4.77453125 -6.171875 4.8515625 C-6.77515625 4.90054688 -7.3784375 4.94953125 -8 5 C-8 4.01 -8 3.02 -8 2 C-5.36 2 -2.72 2 0 2 C0 1.34 0 0.68 0 0 Z " fill="#4D576F" transform="translate(253,82)"/>
<path d="M0 0 C3.91258965 5.86888448 4.15564623 9.18168727 3 16 C2.67 16 2.34 16 2 16 C0.80911014 10.61972975 -0.2919519 5.54708616 0 0 Z " fill="#8890A1" transform="translate(324,39)"/>
<path d="M0 0 C0.66 0.33 1.32 0.66 2 1 C1.34 2.65 0.68 4.3 0 6 C-2.31 5.67 -4.62 5.34 -7 5 C-4.63707344 2.47411298 -3.33537489 1.11179163 0 0 Z " fill="#394762" transform="translate(237,31)"/>
<path d="M0 0 C0.66 0 1.32 0 2 0 C2.05395478 1.62463842 2.09277195 3.24978541 2.125 4.875 C2.14820313 5.77992187 2.17140625 6.68484375 2.1953125 7.6171875 C2 10 2 10 0 12 C-0.99 11.67 -1.98 11.34 -3 11 C-2.67 10.34 -2.34 9.68 -2 9 C-1.34 9 -0.68 9 0 9 C0 6.03 0 3.06 0 0 Z " fill="#21384F" transform="translate(256,115)"/>
<path d="M0 0 C0.66 0.33 1.32 0.66 2 1 C2 2.32 2 3.64 2 5 C-2.62 5 -7.24 5 -12 5 C-9 3 -9 3 -5.8125 3.375 C-4.884375 3.58125 -3.95625 3.7875 -3 4 C-2.67 3.01 -2.34 2.02 -2 1 C-1.34 0.67 -0.68 0.34 0 0 Z " fill="#2F3860" transform="translate(294,80)"/>
<path d="M0 0 C4.35522853 0.50642192 7.44239635 1.38411497 11 4 C11 4.66 11 5.32 11 6 C11.66 6 12.32 6 13 6 C12.67 6.66 12.34 7.32 12 8 C9.99743426 6.85865673 7.99800203 5.71181367 6 4.5625 C4.88625 3.92441406 3.7725 3.28632812 2.625 2.62890625 C1.75875 2.09136719 0.8925 1.55382813 0 1 C0 0.67 0 0.34 0 0 Z " fill="#CD426A" transform="translate(77,35)"/>
<path d="M0 0 C0.66 0.66 1.32 1.32 2 2 C1.625 5.625 1.625 5.625 1 9 C-0.32 8.67 -1.64 8.34 -3 8 C-3.33 6.02 -3.66 4.04 -4 2 C-3.01 2 -2.02 2 -1 2 C-0.67 1.34 -0.34 0.68 0 0 Z " fill="#34425F" transform="translate(310,114)"/>
<path d="M0 0 C0.66 1.32 1.32 2.64 2 4 C1.01 4.99 0.02 5.98 -1 7 C-1.99 6.67 -2.98 6.34 -4 6 C-4 6.99 -4 7.98 -4 9 C-4.66 8.67 -5.32 8.34 -6 8 C-4.26440562 4.942048 -2.61527381 2.36620011 0 0 Z " fill="#31425D" transform="translate(170,96)"/>
<path d="M0 0 C0.7425 0.0825 1.485 0.165 2.25 0.25 C1.5625 2.1875 1.5625 2.1875 0.25 4.25 C-2.62939419 5.18580311 -4.00509788 5.62245106 -6.75 4.25 C-3.42692308 0.31153846 -3.42692308 0.31153846 0 0 Z " fill="#495B99" transform="translate(48.75,48.75)"/>
<path d="M0 0 C1.4606285 2.64738916 2 3.89448334 2 7 C-1.96 7 -5.92 7 -10 7 C-10 6.67 -10 6.34 -10 6 C-8.906875 5.938125 -7.81375 5.87625 -6.6875 5.8125 C-2.85667284 5.3867767 -2.85667284 5.3867767 -1.0625 2.4375 C-0.711875 1.633125 -0.36125 0.82875 0 0 Z " fill="#57637B" transform="translate(330,116)"/>
<path d="M0 0 C1.98 0 3.96 0 6 0 C5.67 1.65 5.34 3.3 5 5 C2 4 2 4 1 3 C0.01 3.495 0.01 3.495 -1 4 C-0.67 2.68 -0.34 1.36 0 0 Z " fill="#192747" transform="translate(231,118)"/>
<path d="M0 0 C0.33 0 0.66 0 1 0 C2.33257403 12.66970387 2.33257403 12.66970387 1 18 C-0.65 18 -2.3 18 -4 18 C-3.51917969 17.66355469 -3.03835938 17.32710937 -2.54296875 16.98046875 C-0.24390033 14.02951258 -0.43016048 10.91291058 -0.3125 7.3125 C-0.27833984 6.61060547 -0.24417969 5.90871094 -0.20898438 5.18554688 C-0.12670053 3.45758613 -0.0616676 1.72881928 0 0 Z " fill="#13203F" transform="translate(351,111)"/>
<path d="M0 0 C5.75 0.75 5.75 0.75 8 3 C5.09399739 4.25664978 3.20395416 5 0 5 C0 3.35 0 1.7 0 0 Z " fill="#394A66" transform="translate(183,94)"/>
<path d="M0 0 C0.66 0.33 1.32 0.66 2 1 C1.67 1.66 1.34 2.32 1 3 C0.34 3 -0.32 3 -1 3 C-1 3.66 -1 4.32 -1 5 C-1.66 5 -2.32 5 -3 5 C-3 5.66 -3 6.32 -3 7 C-3.99 7.33 -4.98 7.66 -6 8 C-6 7.34 -6 6.68 -6 6 C-6.66 5.67 -7.32 5.34 -8 5 C-6.71475739 4.13619741 -5.42157581 3.28419631 -4.125 2.4375 C-3.04605469 1.72400391 -3.04605469 1.72400391 -1.9453125 0.99609375 C-1.30335937 0.66738281 -0.66140625 0.33867188 0 0 Z " fill="#5C6D9C" transform="translate(26,36)"/>
<path d="M0 0 C0.99 0 1.98 0 3 0 C3.625 1.875 3.625 1.875 4 4 C3.34 4.66 2.68 5.32 2 6 C2 5.34 2 4.68 2 4 C-0.64 4.33 -3.28 4.66 -6 5 C-5.195625 4.360625 -4.39125 3.72125 -3.5625 3.0625 C-1.7249496 1.59396498 -1.7249496 1.59396498 0 0 Z " fill="#5C6BA1" transform="translate(36,30)"/>
<path d="M0 0 C1.32 0.66 2.64 1.32 4 2 C-0.95 4.475 -0.95 4.475 -6 7 C-6 6.01 -6 5.02 -6 4 C-3 1.8125 -3 1.8125 0 0 Z " fill="#5B6698" transform="translate(56,57)"/>
<path d="M0 0 C0.66 0.33 1.32 0.66 2 1 C1.01 2.485 1.01 2.485 0 4 C-0.69313908 5.65583225 -1.36474424 7.32110979 -2 9 C-2.99 9 -3.98 9 -5 9 C-3.7508258 5.54074837 -2.32472205 2.85306797 0 0 Z " fill="#505C78" transform="translate(228,36)"/>
<path d="M0 0 C0.66 0.33 1.32 0.66 2 1 C1.67 2.32 1.34 3.64 1 5 C-3.455 5.495 -3.455 5.495 -8 6 C-3.375 2 -3.375 2 0 2 C0 1.34 0 0.68 0 0 Z " fill="#6E78A9" transform="translate(48,23)"/>
<path d="M0 0 C4.43090471 1.20842856 6.98112756 2.51668565 10 6 C9.01 6.33 8.02 6.66 7 7 C4.8125 5.6875 4.8125 5.6875 3 4 C3 3.34 3 2.68 3 2 C2.01 2 1.02 2 0 2 C0 1.34 0 0.68 0 0 Z " fill="#7078A3" transform="translate(127,48)"/>
<path d="M0 0 C0.66 0 1.32 0 2 0 C3.25664978 2.90600261 4 4.79604584 4 8 C2.68 7.34 1.36 6.68 0 6 C0 4.02 0 2.04 0 0 Z " fill="#33405B" transform="translate(234,66)"/>
<path d="M0 0 C0.66 0 1.32 0 2 0 C2 0.66 2 1.32 2 2 C3.32 2 4.64 2 6 2 C6 2.66 6 3.32 6 4 C6.66 4 7.32 4 8 4 C8.33 4.99 8.66 5.98 9 7 C5.66666667 5.66666667 2.33333333 4.33333333 -1 3 C-0.67 2.01 -0.34 1.02 0 0 Z " fill="#6D77A9" transform="translate(67,52)"/>
<path d="M0 0 C0.66 0.33 1.32 0.66 2 1 C1.34 3.64 0.68 6.28 0 9 C-0.99 8.34 -1.98 7.68 -3 7 C-3.375 4.5 -3.375 4.5 -3 2 C-2.01 1.34 -1.02 0.68 0 0 Z " fill="#515D92" transform="translate(16,42)"/>
<path d="M0 0 C0.33 1.32 0.66 2.64 1 4 C3.31 4.33 5.62 4.66 8 5 C8 5.66 8 6.32 8 7 C1.125 6.125 1.125 6.125 0 5 C-0.04063832 3.33382885 -0.042721 1.66611905 0 0 Z " fill="#4A546D" transform="translate(238,103)"/>
<path d="M0 0 C2.97 0.33 5.94 0.66 9 1 C9 1.33 9 1.66 9 2 C8.36191406 2.12117188 7.72382813 2.24234375 7.06640625 2.3671875 C5.82697266 2.61855469 5.82697266 2.61855469 4.5625 2.875 C3.73878906 3.03742188 2.91507812 3.19984375 2.06640625 3.3671875 C1.38449219 3.57601562 0.70257813 3.78484375 0 4 C-0.33 4.66 -0.66 5.32 -1 6 C-0.67 4.02 -0.34 2.04 0 0 Z " fill="#384163" transform="translate(317,100)"/>
<path d="M0 0 C0.99 0.33 1.98 0.66 3 1 C3 2.32 3 3.64 3 5 C3.99 4.67 4.98 4.34 6 4 C6.33 4.66 6.66 5.32 7 6 C4.69 6 2.38 6 0 6 C0 4.02 0 2.04 0 0 Z " fill="#13203C" transform="translate(260,95)"/>
<path d="M0 0 C0.33 0.66 0.66 1.32 1 2 C1.66 2 2.32 2 3 2 C1.25 5.875 1.25 5.875 -1 7 C-1.99 6.34 -2.98 5.68 -4 5 C-3.34 5 -2.68 5 -2 5 C-1.34 3.35 -0.68 1.7 0 0 Z " fill="#132147" transform="translate(259,78)"/>
<path d="M0 0 C0.99 0 1.98 0 3 0 C3 0.66 3 1.32 3 2 C-0.96 3.98 -0.96 3.98 -5 6 C-5 4.68 -5 3.36 -5 2 C-3.35 2 -1.7 2 0 2 C0 1.34 0 0.68 0 0 Z " fill="#6874A8" transform="translate(41,42)"/>
<path d="M0 0 C2.375 0.625 2.375 0.625 5 2 C6.69835501 5.62830387 7.28163292 7.15510125 6 11 C5.7525 10.0925 5.505 9.185 5.25 8.25 C3.95551476 4.88433837 2.63859364 3.37473427 0 1 C0 0.67 0 0.34 0 0 Z " fill="#D9748F" transform="translate(114,40)"/>
<path d="M0 0 C1.32 0 2.64 0 4 0 C4.33 1.32 4.66 2.64 5 4 C4.01 4.495 4.01 4.495 3 5 C2.67 5.66 2.34 6.32 2 7 C0 2.25 0 2.25 0 0 Z " fill="#1B2952" transform="translate(370,119)"/>
<path d="M0 0 C1.15941038 3.47823115 0.70820884 5.45895578 0 9 C-2.89932357 6.60490662 -3.50168276 4.68754757 -4 1 C-2.68 1.33 -1.36 1.66 0 2 C0 1.34 0 0.68 0 0 Z " fill="#424F6F" transform="translate(315,106)"/>
<path d="M0 0 C0.99 0 1.98 0 3 0 C1.125 4.75 1.125 4.75 0 7 C-0.66 6.67 -1.32 6.34 -2 6 C-2 4.68 -2 3.36 -2 2 C-1.34 2 -0.68 2 0 2 C0 1.34 0 0.68 0 0 Z " fill="#35425E" transform="translate(257,69)"/>
<path d="M0 0 C2.0625 0.4375 2.0625 0.4375 4 1 C4 1.99 4 2.98 4 4 C2.68 4.33 1.36 4.66 0 5 C-0.5625 3.0625 -0.5625 3.0625 -1 1 C-0.67 0.67 -0.34 0.34 0 0 Z " fill="#0F2752" transform="translate(311,118)"/>
<path d="M0 0 C1.65 1.65 3.3 3.3 5 5 C4.01 5.66 3.02 6.32 2 7 C0 5 0 5 -0.125 2.375 C-0.08375 1.59125 -0.0425 0.8075 0 0 Z " fill="#404F6C" transform="translate(362,110)"/>
<path d="M0 0 C3.79588866 0.54226981 5.47211993 2.20127563 8 5 C7.01 5.495 7.01 5.495 6 6 C3.4375 4.75 3.4375 4.75 1 3 C0.67 2.01 0.34 1.02 0 0 Z " fill="#60677C" transform="translate(230,109)"/>
<path d="M0 0 C0.33 0.66 0.66 1.32 1 2 C0.0409375 2.433125 0.0409375 2.433125 -0.9375 2.875 C-3.15206079 3.82823451 -3.15206079 3.82823451 -4 6 C-4.66 6 -5.32 6 -6 6 C-5.67 4.35 -5.34 2.7 -5 1 C-3.35 0.67 -1.7 0.34 0 0 Z " fill="#C62C5A" transform="translate(62,66)"/>
<path d="M0 0 C2.31 0.33 4.62 0.66 7 1 C5.35 2.32 3.7 3.64 2 5 C1.01 4.01 0.02 3.02 -1 2 C-0.67 1.34 -0.34 0.68 0 0 Z " fill="#49599C" transform="translate(59,53)"/>
<path d="M0 0 C-3.06117568 2.62386487 -3.73173127 3 -8 3 C-7.67 2.01 -7.34 1.02 -7 0 C-3.86650268 -1.04449911 -3.01031744 -0.93423645 0 0 Z " fill="#112348" transform="translate(180,126)"/>
<path d="M0 0 C0.99 1.32 1.98 2.64 3 4 C2.1875 7.75 2.1875 7.75 1 11 C0.67 11 0.34 11 0 11 C0 7.37 0 3.74 0 0 Z " fill="#606CA1" transform="translate(56,119)"/>
<path d="M0 0 C2.0625 0.4375 2.0625 0.4375 4 1 C4 1.66 4 2.32 4 3 C1 5 1 5 -2 5 C-1.125 1.125 -1.125 1.125 0 0 Z " fill="#445170" transform="translate(186,119)"/>
<path d="M0 0 C0.99 0.66 1.98 1.32 3 2 C2.34 3.32 1.68 4.64 1 6 C0.67 5.34 0.34 4.68 0 4 C-0.99 3.67 -1.98 3.34 -3 3 C-2.01 2.01 -1.02 1.02 0 0 Z " fill="#0D254C" transform="translate(241,76)"/>
<path d="M0 0 C-0.33 0.99 -0.66 1.98 -1 3 C-2.84765625 3.73046875 -2.84765625 3.73046875 -5.0625 4.1875 C-5.79597656 4.34605469 -6.52945313 4.50460938 -7.28515625 4.66796875 C-8.13400391 4.83232422 -8.13400391 4.83232422 -9 5 C-4.22727273 0 -4.22727273 0 0 0 Z " fill="#7881AC" transform="translate(64,40)"/>
<path d="M0 0 C2.375 -0.1875 2.375 -0.1875 5 0 C5.66 0.99 6.32 1.98 7 3 C4.36 3 1.72 3 -1 3 C-0.67 2.01 -0.34 1.02 0 0 Z " fill="#293550" transform="translate(295,127)"/>
<path d="M0 0 C1.98 0 3.96 0 6 0 C6 0.66 6 1.32 6 2 C4.02 2.66 2.04 3.32 0 4 C0 2.68 0 1.36 0 0 Z " fill="#0F1868" transform="translate(211,108)"/>
<path d="M0 0 C0.99 0 1.98 0 3 0 C3 1.32 3 2.64 3 4 C1.68 4.33 0.36 4.66 -1 5 C-0.67 3.35 -0.34 1.7 0 0 Z " fill="#132449" transform="translate(264,75)"/>
</svg>
